<svg width="1440" height="380" viewBox="0 0 1440 380" fill="none" xmlns="http://www.w3.org/2000/svg">
<g clip-path="url(#clip0_6920_36625)">
<mask id="mask0_6920_36625" style="mask-type:luminance" maskUnits="userSpaceOnUse" x="-1" y="-1" width="1442" height="382">
<path d="M1440.02 -0.700012H-0.0234375V380.7H1440.02V-0.700012Z" fill="white"/>
</mask>
<g mask="url(#mask0_6920_36625)">
<path d="M1440.02 1.22H-2.07812V379.44H1440.02V1.22Z" fill="#FFFADB"/>
<path d="M1474.52 112.89C1429.77 135.77 1377.89 153.62 1317.62 163.54C1135.95 193.47 1026.84 233.49 965.198 291.91C905.848 348.15 890.458 421.6 896.568 519.63L895.688 520.11C889.568 421.77 905.088 348.03 964.858 291.39C1026.75 232.74 1136.07 192.59 1317.99 162.63C1378.14 152.72 1429.91 134.91 1474.56 112.07L1474.52 112.89ZM1474.82 104.86C1426.93 131.4 1370.42 152.11 1303.62 163.12C1121.95 193.05 1012.84 233.07 951.198 291.49C890.288 349.21 875.688 425.04 883.098 526.98L882.218 527.46C874.788 425.22 889.528 349.09 950.868 290.97C1012.76 232.32 1122.08 192.17 1304 162.21C1370.68 151.23 1427.08 130.54 1474.86 104.05L1474.82 104.86ZM1475.16 96.17C1424.33 126.66 1363.22 150.56 1289.64 162.68C1107.97 192.61 998.858 232.63 937.218 291.05C875.668 349.37 861.398 426.19 869.348 529.74L869.688 534.27L868.808 534.75L868.468 530.29C860.488 426.4 874.878 349.26 936.868 290.52C998.758 231.87 1108.08 191.72 1290 161.76C1363.46 149.66 1424.46 125.79 1475.19 95.34L1475.16 96.17ZM1475.52 86.78C1421.95 121.53 1356.29 148.97 1275.65 162.26C1093.98 192.19 984.868 232.21 923.228 290.63C861.678 348.95 847.408 425.77 855.358 529.33C855.678 533.51 855.988 537.59 856.268 541.61L855.388 542.09C855.098 538.1 854.798 534.04 854.478 529.89C846.498 426 860.888 348.86 922.878 290.12C984.768 231.47 1094.09 191.32 1276.01 161.36C1356.54 148.09 1422.08 120.68 1475.55 85.96L1475.52 86.78ZM1475.91 76.66C1419.83 115.98 1349.67 147.33 1261.66 161.83C1079.99 191.76 970.878 231.78 909.238 290.2C847.688 348.52 833.418 425.34 841.368 528.89C841.898 535.8 842.388 542.46 842.818 548.93L841.938 549.41C841.498 542.97 841.018 536.33 840.488 529.45C832.508 425.56 846.898 348.42 908.888 289.68C970.778 231.03 1080.1 190.88 1262.02 160.92C1349.92 146.44 1419.97 115.11 1475.93 75.82L1475.91 76.66ZM1476.33 65.73C1418 109.94 1343.38 145.64 1247.67 161.4C1066 191.33 956.898 231.35 895.248 289.77C833.698 348.09 819.428 424.91 827.378 528.47C828.128 538.19 828.788 547.44 829.338 556.28L828.458 556.76C827.908 547.94 827.248 538.71 826.498 529.02C818.518 425.13 832.908 347.99 894.898 289.25C956.788 230.6 1066.11 190.45 1248.03 160.49C1343.64 144.74 1418.14 109.06 1476.35 64.87L1476.33 65.73ZM1476.79 53.92C1416.48 103.34 1337.48 143.87 1233.69 160.97C1052.02 190.9 942.908 230.92 881.268 289.34C819.718 347.66 805.448 424.48 813.398 528.04C814.368 540.66 815.198 552.49 815.818 563.66L814.938 564.14C814.318 553 813.488 541.19 812.518 528.6C804.538 424.71 818.928 347.57 880.918 288.83C942.808 230.18 1052.13 190.03 1234.05 160.07C1337.76 142.99 1416.63 102.45 1476.82 53.05L1476.79 53.92ZM1477.28 41.14C1415.3 96.1 1332.02 142.04 1219.7 160.54C1038.03 190.47 928.918 230.49 867.278 288.91C805.728 347.23 791.458 424.05 799.408 527.61C800.608 543.22 801.598 557.64 802.248 571.06L801.368 571.54C800.728 558.15 799.738 543.75 798.538 528.17C790.558 424.28 804.948 347.14 866.938 288.4C928.828 229.75 1038.15 189.6 1220.07 159.64C1332.31 141.15 1415.47 95.19 1477.32 40.25L1477.28 41.14ZM1477.81 27.31C1414.49 88.12 1327.05 140.13 1205.71 160.12C1024.04 190.05 914.928 230.07 853.288 288.49C791.738 346.81 777.468 423.63 785.418 527.18C786.858 545.89 787.988 562.89 788.588 578.5L787.708 578.98C787.108 563.4 785.978 546.42 784.538 527.74C776.558 423.85 790.948 346.71 852.938 287.97C914.828 229.32 1024.15 189.17 1206.07 159.21C1327.35 139.23 1414.67 87.19 1477.84 26.39L1477.81 27.31ZM1478.39 12.31C1414.12 79.27 1322.65 138.12 1191.72 159.68C1010.05 189.61 900.938 229.63 839.298 288.05C777.748 346.37 763.478 423.19 771.428 526.74C773.108 548.66 774.388 568.25 774.868 585.97L773.988 586.45C773.508 568.76 772.238 549.2 770.558 527.3C762.578 423.41 776.968 346.27 838.958 287.53C900.848 228.88 1010.17 188.73 1192.09 158.77C1322.98 137.21 1414.32 78.31 1478.42 11.35L1478.39 12.31ZM1479.02 -3.99001C1414.23 69.39 1318.92 136 1177.74 159.25C996.068 189.18 886.958 229.2 825.318 287.62C763.768 345.94 749.498 422.76 757.448 526.32C759.388 551.58 760.778 573.74 761.048 593.51L760.168 593.99C759.908 574.25 758.508 552.11 756.578 526.87C748.598 422.98 762.988 345.84 824.978 287.1C886.868 228.45 996.188 188.3 1178.11 158.34C1319.28 135.09 1414.45 68.39 1479.06 -5L1479.02 -3.99001ZM1479.7 -21.76C1414.89 58.27 1315.99 133.75 1163.75 158.83C982.078 188.76 872.968 228.78 811.328 287.2C749.778 345.52 735.508 422.34 743.458 525.89C745.668 554.62 747.168 579.35 747.098 601.11L746.218 601.59C746.288 579.86 744.788 555.16 742.578 526.44C734.598 422.55 748.988 345.41 810.978 286.67C872.868 228.02 982.188 187.87 1164.11 157.91C1316.37 132.83 1415.13 57.22 1479.74 -22.82L1479.7 -21.76ZM1480.45 -41.24C1416.21 45.58 1314.04 131.33 1149.76 158.39C968.088 188.32 858.978 228.34 797.338 286.76C735.788 345.08 721.518 421.9 729.468 525.46C731.958 557.82 733.548 585.11 733.008 608.79L732.118 609.27C732.658 585.62 731.068 558.37 728.588 526.01C720.608 422.12 734.998 344.98 796.988 286.24C858.878 227.59 968.198 187.44 1150.12 157.48C1314.46 130.41 1416.47 44.47 1480.49 -42.36L1480.45 -41.24ZM1481.28 -62.64C1418.3 30.96 1313.29 128.73 1135.78 157.97C954.098 187.9 844.998 227.92 783.348 286.34C721.798 344.66 707.528 421.48 715.478 525.03C718.258 561.2 719.918 591.03 718.738 616.57L717.848 617.06C719.038 591.56 717.378 561.76 714.598 525.59C706.618 421.7 721.008 344.56 782.998 285.82C844.888 227.17 954.208 187.02 1136.13 157.06C1313.78 127.8 1418.59 29.75 1481.31 -63.86L1481.28 -62.64ZM1482.19 -86.39C1421.33 13.72 1314.13 125.85 1121.78 157.54C940.108 187.47 830.998 227.49 769.358 285.91C707.808 344.23 693.538 421.05 701.488 524.61C704.568 564.78 706.288 597.14 704.258 624.48L703.358 624.97C705.408 597.68 703.698 565.35 700.618 525.17C692.638 421.28 707.028 344.14 769.018 285.4C830.908 226.75 940.228 186.6 1122.15 156.64C1314.7 124.92 1421.68 12.4 1482.24 -87.69L1482.19 -86.39ZM1483.21 -112.88C1425.54 -7.05 1317.05 122.64 1107.8 157.11C926.128 187.04 817.018 227.06 755.378 285.48C693.828 343.8 679.558 420.62 687.508 524.17C690.918 568.57 692.648 603.43 689.498 632.51L688.598 633C691.778 603.97 690.048 569.15 686.638 524.72C678.658 420.83 693.048 343.69 755.038 284.95C816.928 226.3 926.248 186.15 1108.17 156.19C1317.75 121.67 1425.96 -8.59 1483.27 -114.35L1483.21 -112.88ZM1484.37 -142.8C1431.31 -33.04 1323 118.93 1093.81 156.68C912.138 186.61 803.028 226.63 741.388 285.05C679.838 343.37 665.568 420.19 673.518 523.75C677.278 572.65 678.998 609.97 674.398 640.75L673.478 641.25C678.108 610.53 676.398 573.24 672.638 524.3C664.658 420.41 679.048 343.27 741.038 284.53C802.928 225.88 912.248 185.73 1094.17 155.77C1323.88 117.93 1431.82 -34.92 1484.42 -144.45L1484.37 -142.8ZM1485.69 -177.03C1439.27 -67.54 1333.71 114.43 1079.83 156.25C898.158 186.18 789.048 226.2 727.408 284.62C665.858 342.94 651.588 419.76 659.538 523.32C663.658 577.02 665.338 616.76 658.888 649.21L657.948 649.72C664.458 617.33 662.788 577.63 658.658 523.87C650.678 419.98 665.068 342.84 727.058 284.1C788.948 225.45 898.268 185.3 1080.19 155.34C1334.93 113.38 1439.92 -70.03 1485.76 -178.95L1485.69 -177.03ZM641.828 658.51C650.768 624.48 649.198 582.41 644.668 523.44C636.688 419.55 651.078 342.41 713.068 283.67C774.958 225.02 884.278 184.87 1066.2 154.91C1329.77 111.49 1433.04 -83.35 1476.33 -190.43C1480.51 -200.77 1484.13 -210.29 1487.29 -218.79L1487.2 -216.55C1484.26 -208.67 1480.92 -199.96 1477.12 -190.56C1433.69 -83.15 1330.12 112.3 1065.83 155.83C884.158 185.76 775.048 225.78 713.408 284.2C651.858 342.52 637.588 419.34 645.538 522.89C650.058 581.78 651.638 623.88 642.778 657.99L641.828 658.51Z" fill="#DADBDA"/>
<mask id="mask1_6920_36625" style="mask-type:luminance" maskUnits="userSpaceOnUse" x="641" y="-219" width="847" height="878">
<path d="M1474.52 112.89C1429.77 135.77 1377.89 153.62 1317.62 163.54C1135.95 193.47 1026.84 233.49 965.198 291.91C905.848 348.15 890.458 421.6 896.568 519.63L895.688 520.11C889.568 421.77 905.088 348.03 964.858 291.39C1026.75 232.74 1136.07 192.59 1317.99 162.63C1378.14 152.72 1429.91 134.91 1474.56 112.07L1474.52 112.89ZM1474.82 104.86C1426.93 131.4 1370.42 152.11 1303.62 163.12C1121.95 193.05 1012.84 233.07 951.198 291.49C890.288 349.21 875.688 425.04 883.098 526.98L882.218 527.46C874.788 425.22 889.528 349.09 950.868 290.97C1012.76 232.32 1122.08 192.17 1304 162.21C1370.68 151.23 1427.08 130.54 1474.86 104.05L1474.82 104.86ZM1475.16 96.17C1424.33 126.66 1363.22 150.56 1289.64 162.68C1107.97 192.61 998.858 232.63 937.218 291.05C875.668 349.37 861.398 426.19 869.348 529.74L869.688 534.27L868.808 534.75L868.468 530.29C860.488 426.4 874.878 349.26 936.868 290.52C998.758 231.87 1108.08 191.72 1290 161.76C1363.46 149.66 1424.46 125.79 1475.19 95.34L1475.16 96.17ZM1475.52 86.78C1421.95 121.53 1356.29 148.97 1275.65 162.26C1093.98 192.19 984.868 232.21 923.228 290.63C861.678 348.95 847.408 425.77 855.358 529.33C855.678 533.51 855.988 537.59 856.268 541.61L855.388 542.09C855.098 538.1 854.798 534.04 854.478 529.89C846.498 426 860.888 348.86 922.878 290.12C984.768 231.47 1094.09 191.32 1276.01 161.36C1356.54 148.09 1422.08 120.68 1475.55 85.96L1475.52 86.78ZM1475.91 76.66C1419.83 115.98 1349.67 147.33 1261.66 161.83C1079.99 191.76 970.878 231.78 909.238 290.2C847.688 348.52 833.418 425.34 841.368 528.89C841.898 535.8 842.388 542.46 842.818 548.93L841.938 549.41C841.498 542.97 841.018 536.33 840.488 529.45C832.508 425.56 846.898 348.42 908.888 289.68C970.778 231.03 1080.1 190.88 1262.02 160.92C1349.92 146.44 1419.97 115.11 1475.93 75.82L1475.91 76.66ZM1476.33 65.73C1418 109.94 1343.38 145.64 1247.67 161.4C1066 191.33 956.898 231.35 895.248 289.77C833.698 348.09 819.428 424.91 827.378 528.47C828.128 538.19 828.788 547.44 829.338 556.28L828.458 556.76C827.908 547.94 827.248 538.71 826.498 529.02C818.518 425.13 832.908 347.99 894.898 289.25C956.788 230.6 1066.11 190.45 1248.03 160.49C1343.64 144.74 1418.14 109.06 1476.35 64.87L1476.33 65.73ZM1476.79 53.92C1416.48 103.34 1337.48 143.87 1233.69 160.97C1052.02 190.9 942.908 230.92 881.268 289.34C819.718 347.66 805.448 424.48 813.398 528.04C814.368 540.66 815.198 552.49 815.818 563.66L814.938 564.14C814.318 553 813.488 541.19 812.518 528.6C804.538 424.71 818.928 347.57 880.918 288.83C942.808 230.18 1052.13 190.03 1234.05 160.07C1337.76 142.99 1416.63 102.45 1476.82 53.05L1476.79 53.92ZM1477.28 41.14C1415.3 96.1 1332.02 142.04 1219.7 160.54C1038.03 190.47 928.918 230.49 867.278 288.91C805.728 347.23 791.458 424.05 799.408 527.61C800.608 543.22 801.598 557.64 802.248 571.06L801.368 571.54C800.728 558.15 799.738 543.75 798.538 528.17C790.558 424.28 804.948 347.14 866.938 288.4C928.828 229.75 1038.15 189.6 1220.07 159.64C1332.31 141.15 1415.47 95.19 1477.32 40.25L1477.28 41.14ZM1477.81 27.31C1414.49 88.12 1327.05 140.13 1205.71 160.12C1024.04 190.05 914.928 230.07 853.288 288.49C791.738 346.81 777.468 423.63 785.418 527.18C786.858 545.89 787.988 562.89 788.588 578.5L787.708 578.98C787.108 563.4 785.978 546.42 784.538 527.74C776.558 423.85 790.948 346.71 852.938 287.97C914.828 229.32 1024.15 189.17 1206.07 159.21C1327.35 139.23 1414.67 87.19 1477.84 26.39L1477.81 27.31ZM1478.39 12.31C1414.12 79.27 1322.65 138.12 1191.72 159.68C1010.05 189.61 900.938 229.63 839.298 288.05C777.748 346.37 763.478 423.19 771.428 526.74C773.108 548.66 774.388 568.25 774.868 585.97L773.988 586.45C773.508 568.76 772.238 549.2 770.558 527.3C762.578 423.41 776.968 346.27 838.958 287.53C900.848 228.88 1010.17 188.73 1192.09 158.77C1322.98 137.21 1414.32 78.31 1478.42 11.35L1478.39 12.31ZM1479.02 -3.99001C1414.23 69.39 1318.92 136 1177.74 159.25C996.068 189.18 886.958 229.2 825.318 287.62C763.768 345.94 749.498 422.76 757.448 526.32C759.388 551.58 760.778 573.74 761.048 593.51L760.168 593.99C759.908 574.25 758.508 552.11 756.578 526.87C748.598 422.98 762.988 345.84 824.978 287.1C886.868 228.45 996.188 188.3 1178.11 158.34C1319.28 135.09 1414.45 68.39 1479.06 -5L1479.02 -3.99001ZM1479.7 -21.76C1414.89 58.27 1315.99 133.75 1163.75 158.83C982.078 188.76 872.968 228.78 811.328 287.2C749.778 345.52 735.508 422.34 743.458 525.89C745.668 554.62 747.168 579.35 747.098 601.11L746.218 601.59C746.288 579.86 744.788 555.16 742.578 526.44C734.598 422.55 748.988 345.41 810.978 286.67C872.868 228.02 982.188 187.87 1164.11 157.91C1316.37 132.83 1415.13 57.22 1479.74 -22.82L1479.7 -21.76ZM1480.45 -41.24C1416.21 45.58 1314.04 131.33 1149.76 158.39C968.088 188.32 858.978 228.34 797.338 286.76C735.788 345.08 721.518 421.9 729.468 525.46C731.958 557.82 733.548 585.11 733.008 608.79L732.118 609.27C732.658 585.62 731.068 558.37 728.588 526.01C720.608 422.12 734.998 344.98 796.988 286.24C858.878 227.59 968.198 187.44 1150.12 157.48C1314.46 130.41 1416.47 44.47 1480.49 -42.36L1480.45 -41.24ZM1481.28 -62.64C1418.3 30.96 1313.29 128.73 1135.78 157.97C954.098 187.9 844.998 227.92 783.348 286.34C721.798 344.66 707.528 421.48 715.478 525.03C718.258 561.2 719.918 591.03 718.738 616.57L717.848 617.06C719.038 591.56 717.378 561.76 714.598 525.59C706.618 421.7 721.008 344.56 782.998 285.82C844.888 227.17 954.208 187.02 1136.13 157.06C1313.78 127.8 1418.59 29.75 1481.31 -63.86L1481.28 -62.64ZM1482.19 -86.39C1421.33 13.72 1314.13 125.85 1121.78 157.54C940.108 187.47 830.998 227.49 769.358 285.91C707.808 344.23 693.538 421.05 701.488 524.61C704.568 564.78 706.288 597.14 704.258 624.48L703.358 624.97C705.408 597.68 703.698 565.35 700.618 525.17C692.638 421.28 707.028 344.14 769.018 285.4C830.908 226.75 940.228 186.6 1122.15 156.64C1314.7 124.92 1421.68 12.4 1482.24 -87.69L1482.19 -86.39ZM1483.21 -112.88C1425.54 -7.05 1317.05 122.64 1107.8 157.11C926.128 187.04 817.018 227.06 755.378 285.48C693.828 343.8 679.558 420.62 687.508 524.17C690.918 568.57 692.648 603.43 689.498 632.51L688.598 633C691.778 603.97 690.048 569.15 686.638 524.72C678.658 420.83 693.048 343.69 755.038 284.95C816.928 226.3 926.248 186.15 1108.17 156.19C1317.75 121.67 1425.96 -8.59 1483.27 -114.35L1483.21 -112.88ZM1484.37 -142.8C1431.31 -33.04 1323 118.93 1093.81 156.68C912.138 186.61 803.028 226.63 741.388 285.05C679.838 343.37 665.568 420.19 673.518 523.75C677.278 572.65 678.998 609.97 674.398 640.75L673.478 641.25C678.108 610.53 676.398 573.24 672.638 524.3C664.658 420.41 679.048 343.27 741.038 284.53C802.928 225.88 912.248 185.73 1094.17 155.77C1323.88 117.93 1431.82 -34.92 1484.42 -144.45L1484.37 -142.8ZM1485.69 -177.03C1439.27 -67.54 1333.71 114.43 1079.83 156.25C898.158 186.18 789.048 226.2 727.408 284.62C665.858 342.94 651.588 419.76 659.538 523.32C663.658 577.02 665.338 616.76 658.888 649.21L657.948 649.72C664.458 617.33 662.788 577.63 658.658 523.87C650.678 419.98 665.068 342.84 727.058 284.1C788.948 225.45 898.268 185.3 1080.19 155.34C1334.93 113.38 1439.92 -70.03 1485.76 -178.95L1485.69 -177.03ZM641.828 658.51C650.768 624.48 649.198 582.41 644.668 523.44C636.688 419.55 651.078 342.41 713.068 283.67C774.958 225.02 884.278 184.87 1066.2 154.91C1329.77 111.49 1433.04 -83.35 1476.33 -190.43C1480.51 -200.77 1484.13 -210.29 1487.29 -218.79L1487.2 -216.55C1484.26 -208.67 1480.92 -199.96 1477.12 -190.56C1433.69 -83.15 1330.12 112.3 1065.83 155.83C884.158 185.76 775.048 225.78 713.408 284.2C651.858 342.52 637.588 419.34 645.538 522.89C650.058 581.78 651.638 623.88 642.778 657.99L641.828 658.51Z" fill="white"/>
</mask>
<g mask="url(#mask1_6920_36625)">
<path d="M1470.91 206.51L627.18 666.5L643.56 241.18L1487.29 -218.8L1470.91 206.51Z" fill="#DADBDA"/>
</g>
<path d="M687.243 373.65C687.243 383.75 682.573 391.74 671.263 391.74C659.953 391.74 650.773 383.55 650.773 373.45C650.773 363.35 659.943 355.16 671.263 355.16C682.583 355.16 687.243 363.55 687.243 373.65Z" fill="#FCD801"/>
<path d="M95.2691 2.10001C95.2691 45.95 75.7591 80.63 28.4491 80.63C-18.8609 80.63 -57.2109 45.08 -57.2109 1.23002C-57.2109 -42.62 -18.8609 -78.17 28.4491 -78.17C75.7591 -78.17 95.2691 -41.76 95.2691 2.10001Z" fill="#FCD801"/>
<path d="M247.793 -264.46C283.483 -252.94 319.353 -233.34 354.153 -202.79C459.053 -110.71 536.063 -71.28 602.323 -74.77C666.123 -78.13 720.073 -121.37 779.493 -195.75L780.213 -195.54C720.613 -120.94 666.403 -77.57 602.163 -74.19C535.633 -70.69 458.443 -110.16 353.403 -202.36C318.673 -232.85 282.883 -252.41 247.263 -263.89L247.793 -264.46ZM242.543 -258.87C282.043 -248.02 321.923 -227.58 360.493 -193.73C465.393 -101.65 542.403 -62.23 608.663 -65.71C674.133 -69.16 729.233 -114.61 790.513 -192.61L791.233 -192.4C729.783 -114.18 674.423 -68.6 608.493 -65.13C541.963 -61.63 464.773 -101.1 359.733 -193.3C321.233 -227.1 281.423 -247.48 242.003 -258.3L242.543 -258.87ZM236.863 -252.83C280.273 -242.98 324.343 -221.97 366.833 -184.68C471.733 -92.59 548.743 -53.17 615.003 -56.66C681.163 -60.14 736.733 -106.51 798.783 -186.02L801.503 -189.5L802.223 -189.29L799.553 -185.87C737.293 -106.1 681.473 -59.58 614.833 -56.07C548.303 -52.57 471.113 -92.04 366.073 -184.24C323.653 -221.47 279.653 -242.44 236.323 -252.25L236.863 -252.83ZM230.723 -246.29C278.133 -237.8 326.613 -216.49 373.173 -175.61C478.073 -83.54 555.083 -44.11 621.343 -47.6C687.503 -51.08 743.073 -97.45 805.123 -176.96C807.623 -180.17 810.083 -183.3 812.493 -186.37L813.213 -186.16C810.813 -183.11 808.373 -180 805.883 -176.81C743.633 -97.04 687.813 -50.52 621.173 -47.02C554.643 -43.52 477.453 -82.99 372.413 -175.19C325.913 -216.01 277.513 -237.27 230.173 -245.71L230.723 -246.29ZM224.103 -239.25C275.603 -232.48 328.693 -211.16 379.513 -166.56C484.413 -74.48 561.423 -35.06 627.683 -38.54C693.843 -42.02 749.413 -88.39 811.463 -167.9C815.603 -173.2 819.613 -178.31 823.513 -183.23L824.233 -183.02C820.353 -178.11 816.353 -173.03 812.233 -167.75C749.973 -87.99 694.153 -41.47 627.513 -37.96C560.983 -34.46 483.793 -73.93 378.753 -166.13C328.003 -210.68 274.973 -231.94 223.553 -238.66L224.103 -239.25ZM216.963 -231.65C272.633 -226.99 330.593 -206.01 385.853 -157.5C490.743 -65.42 567.763 -26 634.023 -29.49C700.183 -32.97 755.753 -79.34 817.803 -158.85C823.623 -166.31 829.193 -173.39 834.553 -180.1L835.273 -179.89C829.933 -173.2 824.373 -166.14 818.573 -158.7C756.313 -78.93 700.483 -32.41 633.853 -28.9C567.323 -25.4 490.133 -64.87 385.093 -157.07C329.893 -205.53 271.993 -226.44 216.393 -231.04L216.963 -231.65ZM209.243 -223.44C269.163 -221.29 332.263 -201.06 392.193 -148.45C497.083 -56.37 574.103 -16.94 640.363 -20.43C706.523 -23.91 762.093 -70.28 824.143 -149.79C831.703 -159.48 838.833 -168.52 845.633 -176.94L846.353 -176.73C839.573 -168.32 832.453 -159.3 824.913 -149.63C762.653 -69.87 706.823 -23.35 640.193 -19.85C573.663 -16.35 496.473 -55.82 391.433 -148.02C331.553 -200.58 268.513 -220.74 208.663 -222.82L209.243 -223.44ZM200.893 -214.55C265.123 -215.34 333.683 -196.32 398.533 -139.4C503.423 -47.31 580.433 -7.89001 646.703 -11.38C712.863 -14.86 768.433 -61.23 830.483 -140.74C839.833 -152.72 848.533 -163.72 856.753 -173.78L857.473 -173.57C849.263 -163.53 840.583 -152.55 831.243 -140.58C768.993 -60.82 713.163 -14.3 646.533 -10.79C580.003 -7.29001 502.813 -46.76 397.773 -138.96C332.963 -195.85 264.453 -214.78 200.293 -213.91L200.893 -214.55ZM191.843 -204.92C260.423 -209.09 334.813 -191.84 404.873 -130.33C509.763 -38.25 586.773 1.16998 653.043 -2.32001C719.203 -5.80002 774.773 -52.17 836.823 -131.68C848.033 -146.04 858.303 -158.99 867.933 -170.6L868.653 -170.39C859.043 -158.8 848.783 -145.87 837.583 -131.52C775.333 -51.76 719.503 -5.24002 652.873 -1.73001C586.343 1.76999 509.153 -37.7 404.113 -129.9C334.083 -191.37 259.733 -208.52 191.233 -204.27L191.843 -204.92ZM182.043 -194.49C254.973 -202.49 335.613 -187.64 411.213 -121.28C516.103 -29.2 593.113 10.23 659.383 6.73999C725.543 3.25998 781.113 -43.11 843.163 -122.62C856.293 -139.45 868.143 -154.35 879.173 -167.4L879.893 -167.19C868.873 -154.16 857.043 -139.28 843.923 -122.47C781.673 -42.7 725.843 3.82001 659.213 7.32001C592.683 10.82 515.493 -28.65 410.453 -120.85C334.883 -187.19 254.273 -201.92 181.413 -193.82L182.043 -194.49ZM171.383 -183.15C248.643 -195.44 336.023 -183.78 417.543 -112.22C522.443 -20.14 599.453 19.28 665.713 15.8C731.873 12.32 787.443 -34.05 849.493 -113.56C864.623 -132.95 878.053 -149.77 890.493 -164.17L891.213 -163.96C878.793 -149.59 865.383 -132.78 850.253 -113.4C788.013 -33.65 732.183 12.87 665.553 16.38C599.023 19.88 521.833 -19.59 416.793 -111.79C335.283 -183.34 247.903 -194.86 170.723 -182.44L171.383 -183.15ZM159.763 -170.78C241.253 -187.85 335.983 -180.33 423.883 -103.16C528.783 -11.08 605.793 28.34 672.053 24.86C738.223 21.37 793.783 -25 855.843 -104.51C873.063 -126.57 888.063 -145.31 901.933 -160.93L902.653 -160.72C888.813 -145.13 873.823 -126.41 856.613 -104.35C794.353 -24.59 738.523 21.93 671.893 25.44C605.363 28.94 528.173 -10.53 423.133 -102.73C335.223 -179.9 240.483 -187.25 159.083 -170.05L159.763 -170.78ZM147.033 -157.24C232.573 -179.55 335.373 -177.38 430.223 -94.11C535.123 -2.03 612.133 37.4 678.403 33.91C744.563 30.43 800.133 -15.94 862.183 -95.45C881.573 -120.3 898.163 -140.93 913.473 -157.65L914.203 -157.44C898.923 -140.76 882.343 -120.15 862.953 -95.3C800.693 -15.53 744.863 30.99 678.233 34.49C611.703 38 534.503 -1.48001 429.473 -93.68C334.583 -176.98 231.753 -178.92 146.303 -156.46L147.033 -157.24ZM133.043 -142.35C222.293 -170.33 334.073 -175.03 436.573 -85.05C541.463 7.03 618.473 46.45 684.743 42.96C750.903 39.48 806.473 -6.88998 868.523 -86.4C890.193 -114.17 908.363 -136.68 925.153 -154.33L925.883 -154.12C909.113 -136.51 890.963 -114.02 869.283 -86.25C807.033 -6.48001 751.203 40.04 684.573 43.55C618.043 47.05 540.853 7.57999 435.813 -84.62C333.243 -174.66 221.383 -169.64 132.243 -141.49L133.043 -142.35ZM117.513 -125.83C209.913 -159.82 331.853 -173.48 442.903 -76C547.803 16.09 624.813 55.51 691.073 52.02C757.233 48.54 812.803 2.17001 874.863 -77.34C898.933 -108.18 918.693 -132.54 937.023 -150.95L937.763 -150.74C919.453 -132.38 899.713 -108.04 875.633 -77.19C813.373 2.57999 757.543 49.1 690.913 52.61C624.383 56.11 547.193 16.64 442.153 -75.56C330.983 -173.15 208.893 -159.07 116.653 -124.9L117.513 -125.83ZM100.193 -107.4C194.713 -147.51 328.423 -173 449.243 -66.94C554.143 25.14 631.153 64.56 697.413 61.08C763.573 57.6 819.143 11.23 881.193 -68.28C907.803 -102.37 929.133 -128.54 949.103 -147.51L949.843 -147.3C929.893 -128.39 908.573 -102.25 881.953 -68.13C819.713 11.64 763.883 58.16 697.243 61.66C630.713 65.16 553.523 25.69 448.483 -66.51C327.473 -172.73 193.543 -146.66 99.2331 -106.38L100.193 -107.4ZM80.6431 -86.59C175.473 -132.41 323.263 -174.05 455.583 -57.88C560.483 34.2 637.493 73.62 703.753 70.13C769.913 66.65 825.483 20.28 887.533 -59.23C916.833 -96.77 939.743 -124.71 961.473 -143.99L962.223 -143.78C940.503 -124.56 917.623 -96.65 888.293 -59.08C826.043 20.69 770.223 67.21 703.583 70.72C637.053 74.22 559.863 34.75 454.823 -57.45C322.193 -173.88 174.033 -131.37 79.5531 -85.43L80.6431 -86.59ZM58.2631 -62.77C149.793 -112.54 315.343 -177.5 461.923 -48.82C566.823 43.26 643.833 82.68 710.093 79.2C776.253 75.72 831.823 29.35 893.873 -50.16C926.053 -91.39 950.513 -121.04 974.193 -140.37L974.963 -140.15C951.303 -120.91 926.853 -91.29 894.643 -50.01C832.383 29.75 776.563 76.27 709.923 79.78C643.393 83.28 566.203 43.81 461.163 -48.4C314.083 -177.51 147.893 -111.17 57.0031 -61.44L58.2631 -62.77ZM988.163 -136.4C962.303 -117.5 936.313 -86.24 900.973 -40.96C838.723 38.81 782.903 85.33 716.263 88.83C649.733 92.33 572.543 52.86 467.503 -39.34C315.323 -172.93 142.673 -97.27 54.1631 -47.28C45.6231 -42.45 37.8531 -37.86 30.9531 -33.72L32.4131 -35.28C38.8131 -39.11 45.9231 -43.3 53.6931 -47.68C142.483 -97.83 315.653 -173.73 468.253 -39.77C573.153 52.31 650.163 91.73 716.423 88.25C782.583 84.77 838.153 38.4 900.203 -41.11C935.493 -86.32 961.503 -117.61 987.373 -136.62L988.163 -136.4Z" fill="url(#paint0_linear_6920_36625)"/>
<mask id="mask2_6920_36625" style="mask-type:luminance" maskUnits="userSpaceOnUse" x="30" y="-265" width="959" height="355">
<path d="M247.793 -264.46C283.483 -252.94 319.353 -233.34 354.153 -202.79C459.053 -110.71 536.063 -71.28 602.323 -74.77C666.123 -78.13 720.073 -121.37 779.493 -195.75L780.213 -195.54C720.613 -120.94 666.403 -77.57 602.163 -74.19C535.633 -70.69 458.443 -110.16 353.403 -202.36C318.673 -232.85 282.883 -252.41 247.263 -263.89L247.793 -264.46ZM242.543 -258.87C282.043 -248.02 321.923 -227.58 360.493 -193.73C465.393 -101.65 542.403 -62.23 608.663 -65.71C674.133 -69.16 729.233 -114.61 790.513 -192.61L791.233 -192.4C729.783 -114.18 674.423 -68.6 608.493 -65.13C541.963 -61.63 464.773 -101.1 359.733 -193.3C321.233 -227.1 281.423 -247.48 242.003 -258.3L242.543 -258.87ZM236.863 -252.83C280.273 -242.98 324.343 -221.97 366.833 -184.68C471.733 -92.59 548.743 -53.17 615.003 -56.66C681.163 -60.14 736.733 -106.51 798.783 -186.02L801.503 -189.5L802.223 -189.29L799.553 -185.87C737.293 -106.1 681.473 -59.58 614.833 -56.07C548.303 -52.57 471.113 -92.04 366.073 -184.24C323.653 -221.47 279.653 -242.44 236.323 -252.25L236.863 -252.83ZM230.723 -246.29C278.133 -237.8 326.613 -216.49 373.173 -175.61C478.073 -83.54 555.083 -44.11 621.343 -47.6C687.503 -51.08 743.073 -97.45 805.123 -176.96C807.623 -180.17 810.083 -183.3 812.493 -186.37L813.213 -186.16C810.813 -183.11 808.373 -180 805.883 -176.81C743.633 -97.04 687.813 -50.52 621.173 -47.02C554.643 -43.52 477.453 -82.99 372.413 -175.19C325.913 -216.01 277.513 -237.27 230.173 -245.71L230.723 -246.29ZM224.103 -239.25C275.603 -232.48 328.693 -211.16 379.513 -166.56C484.413 -74.48 561.423 -35.06 627.683 -38.54C693.843 -42.02 749.413 -88.39 811.463 -167.9C815.603 -173.2 819.613 -178.31 823.513 -183.23L824.233 -183.02C820.353 -178.11 816.353 -173.03 812.233 -167.75C749.973 -87.99 694.153 -41.47 627.513 -37.96C560.983 -34.46 483.793 -73.93 378.753 -166.13C328.003 -210.68 274.973 -231.94 223.553 -238.66L224.103 -239.25ZM216.963 -231.65C272.633 -226.99 330.593 -206.01 385.853 -157.5C490.743 -65.42 567.763 -26 634.023 -29.49C700.183 -32.97 755.753 -79.34 817.803 -158.85C823.623 -166.31 829.193 -173.39 834.553 -180.1L835.273 -179.89C829.933 -173.2 824.373 -166.14 818.573 -158.7C756.313 -78.93 700.483 -32.41 633.853 -28.9C567.323 -25.4 490.133 -64.87 385.093 -157.07C329.893 -205.53 271.993 -226.44 216.393 -231.04L216.963 -231.65ZM209.243 -223.44C269.163 -221.29 332.263 -201.06 392.193 -148.45C497.083 -56.37 574.103 -16.94 640.363 -20.43C706.523 -23.91 762.093 -70.28 824.143 -149.79C831.703 -159.48 838.833 -168.52 845.633 -176.94L846.353 -176.73C839.573 -168.32 832.453 -159.3 824.913 -149.63C762.653 -69.87 706.823 -23.35 640.193 -19.85C573.663 -16.35 496.473 -55.82 391.433 -148.02C331.553 -200.58 268.513 -220.74 208.663 -222.82L209.243 -223.44ZM200.893 -214.55C265.123 -215.34 333.683 -196.32 398.533 -139.4C503.423 -47.31 580.433 -7.89001 646.703 -11.38C712.863 -14.86 768.433 -61.23 830.483 -140.74C839.833 -152.72 848.533 -163.72 856.753 -173.78L857.473 -173.57C849.263 -163.53 840.583 -152.55 831.243 -140.58C768.993 -60.82 713.163 -14.3 646.533 -10.79C580.003 -7.29001 502.813 -46.76 397.773 -138.96C332.963 -195.85 264.453 -214.78 200.293 -213.91L200.893 -214.55ZM191.843 -204.92C260.423 -209.09 334.813 -191.84 404.873 -130.33C509.763 -38.25 586.773 1.16998 653.043 -2.32001C719.203 -5.80002 774.773 -52.17 836.823 -131.68C848.033 -146.04 858.303 -158.99 867.933 -170.6L868.653 -170.39C859.043 -158.8 848.783 -145.87 837.583 -131.52C775.333 -51.76 719.503 -5.24002 652.873 -1.73001C586.343 1.76999 509.153 -37.7 404.113 -129.9C334.083 -191.37 259.733 -208.52 191.233 -204.27L191.843 -204.92ZM182.043 -194.49C254.973 -202.49 335.613 -187.64 411.213 -121.28C516.103 -29.2 593.113 10.23 659.383 6.73999C725.543 3.25998 781.113 -43.11 843.163 -122.62C856.293 -139.45 868.143 -154.35 879.173 -167.4L879.893 -167.19C868.873 -154.16 857.043 -139.28 843.923 -122.47C781.673 -42.7 725.843 3.82001 659.213 7.32001C592.683 10.82 515.493 -28.65 410.453 -120.85C334.883 -187.19 254.273 -201.92 181.413 -193.82L182.043 -194.49ZM171.383 -183.15C248.643 -195.44 336.023 -183.78 417.543 -112.22C522.443 -20.14 599.453 19.28 665.713 15.8C731.873 12.32 787.443 -34.05 849.493 -113.56C864.623 -132.95 878.053 -149.77 890.493 -164.17L891.213 -163.96C878.793 -149.59 865.383 -132.78 850.253 -113.4C788.013 -33.65 732.183 12.87 665.553 16.38C599.023 19.88 521.833 -19.59 416.793 -111.79C335.283 -183.34 247.903 -194.86 170.723 -182.44L171.383 -183.15ZM159.763 -170.78C241.253 -187.85 335.983 -180.33 423.883 -103.16C528.783 -11.08 605.793 28.34 672.053 24.86C738.223 21.37 793.783 -25 855.843 -104.51C873.063 -126.57 888.063 -145.31 901.933 -160.93L902.653 -160.72C888.813 -145.13 873.823 -126.41 856.613 -104.35C794.353 -24.59 738.523 21.93 671.893 25.44C605.363 28.94 528.173 -10.53 423.133 -102.73C335.223 -179.9 240.483 -187.25 159.083 -170.05L159.763 -170.78ZM147.033 -157.24C232.573 -179.55 335.373 -177.38 430.223 -94.11C535.123 -2.03 612.133 37.4 678.403 33.91C744.563 30.43 800.133 -15.94 862.183 -95.45C881.573 -120.3 898.163 -140.93 913.473 -157.65L914.203 -157.44C898.923 -140.76 882.343 -120.15 862.953 -95.3C800.693 -15.53 744.863 30.99 678.233 34.49C611.703 38 534.503 -1.48001 429.473 -93.68C334.583 -176.98 231.753 -178.92 146.303 -156.46L147.033 -157.24ZM133.043 -142.35C222.293 -170.33 334.073 -175.03 436.573 -85.05C541.463 7.03 618.473 46.45 684.743 42.96C750.903 39.48 806.473 -6.88998 868.523 -86.4C890.193 -114.17 908.363 -136.68 925.153 -154.33L925.883 -154.12C909.113 -136.51 890.963 -114.02 869.283 -86.25C807.033 -6.48001 751.203 40.04 684.573 43.55C618.043 47.05 540.853 7.57999 435.813 -84.62C333.243 -174.66 221.383 -169.64 132.243 -141.49L133.043 -142.35ZM117.513 -125.83C209.913 -159.82 331.853 -173.48 442.903 -76C547.803 16.09 624.813 55.51 691.073 52.02C757.233 48.54 812.803 2.17001 874.863 -77.34C898.933 -108.18 918.693 -132.54 937.023 -150.95L937.763 -150.74C919.453 -132.38 899.713 -108.04 875.633 -77.19C813.373 2.57999 757.543 49.1 690.913 52.61C624.383 56.11 547.193 16.64 442.153 -75.56C330.983 -173.15 208.893 -159.07 116.653 -124.9L117.513 -125.83ZM100.193 -107.4C194.713 -147.51 328.423 -173 449.243 -66.94C554.143 25.14 631.153 64.56 697.413 61.08C763.573 57.6 819.143 11.23 881.193 -68.28C907.803 -102.37 929.133 -128.54 949.103 -147.51L949.843 -147.3C929.893 -128.39 908.573 -102.25 881.953 -68.13C819.713 11.64 763.883 58.16 697.243 61.66C630.713 65.16 553.523 25.69 448.483 -66.51C327.473 -172.73 193.543 -146.66 99.2331 -106.38L100.193 -107.4ZM80.6431 -86.59C175.473 -132.41 323.263 -174.05 455.583 -57.88C560.483 34.2 637.493 73.62 703.753 70.13C769.913 66.65 825.483 20.28 887.533 -59.23C916.833 -96.77 939.743 -124.71 961.473 -143.99L962.223 -143.78C940.503 -124.56 917.623 -96.65 888.293 -59.08C826.043 20.69 770.223 67.21 703.583 70.72C637.053 74.22 559.863 34.75 454.823 -57.45C322.193 -173.88 174.033 -131.37 79.5531 -85.43L80.6431 -86.59ZM58.2631 -62.77C149.793 -112.54 315.343 -177.5 461.923 -48.82C566.823 43.26 643.833 82.68 710.093 79.2C776.253 75.72 831.823 29.35 893.873 -50.16C926.053 -91.39 950.513 -121.04 974.193 -140.37L974.963 -140.15C951.303 -120.91 926.853 -91.29 894.643 -50.01C832.383 29.75 776.563 76.27 709.923 79.78C643.393 83.28 566.203 43.81 461.163 -48.4C314.083 -177.51 147.893 -111.17 57.0031 -61.44L58.2631 -62.77ZM988.163 -136.4C962.303 -117.5 936.313 -86.24 900.973 -40.96C838.723 38.81 782.903 85.33 716.263 88.83C649.733 92.33 572.543 52.86 467.503 -39.34C315.323 -172.93 142.673 -97.27 54.1631 -47.28C45.6231 -42.45 37.8531 -37.86 30.9531 -33.72L32.4131 -35.28C38.8131 -39.11 45.9231 -43.3 53.6931 -47.68C142.483 -97.83 315.653 -173.73 468.253 -39.77C573.153 52.31 650.163 91.73 716.423 88.25C782.583 84.77 838.153 38.4 900.203 -41.11C935.493 -86.32 961.503 -117.61 987.373 -136.62L988.163 -136.4Z" fill="white"/>
</mask>
<g mask="url(#mask2_6920_36625)">
<path d="M309.003 -329.59L1000.16 -132.98L722.123 162.89L30.9531 -33.71L309.003 -329.59Z" fill="url(#paint1_linear_6920_36625)"/>
</g>
<path d="M-64.3303 852.28C-65.1903 814.78 -58.4703 774.46 -41.0603 731.56C11.4097 602.22 23.3197 516.53 -1.7603 455.09C-25.9103 395.94 -84.4903 359.21 -174.27 327.55L-174.31 326.8C-84.2503 358.56 -25.4703 395.49 -1.1503 455.05C24.0297 516.73 12.1297 602.61 -40.4103 732.12C-57.7803 774.94 -64.4903 815.18 -63.6203 852.59L-64.3303 852.28ZM-57.3303 855.4C-60.0703 814.53 -53.8803 770.14 -34.5903 722.59C17.8797 593.25 29.7897 507.56 4.7097 446.12C-20.0703 385.42 -81.1103 348.33 -174.93 316.1L-174.97 315.35C-80.8803 347.68 -19.6303 384.96 5.3197 446.09C30.4997 507.77 18.5997 593.65 -33.9403 723.16C-53.2003 770.63 -59.3603 814.93 -56.6203 855.72L-57.3303 855.4ZM-49.7503 858.77C-54.7203 814.54 -49.3703 766 -28.1203 713.62C24.3497 584.28 36.2597 498.59 11.1797 437.15C-13.8603 375.81 -75.9203 338.58 -171.41 306.12L-175.59 304.7L-175.63 303.95L-171.52 305.35C-75.7203 337.92 -13.4303 375.34 11.7897 437.12C36.9697 498.8 25.0697 584.68 -27.4703 714.2C-48.6903 766.5 -54.0203 814.95 -49.0403 859.1L-49.7503 858.77ZM-41.5603 862.42C-49.1303 814.85 -44.9403 762.07 -21.6503 704.65C30.8197 575.31 42.7297 489.62 17.6497 428.18C-7.39032 366.84 -69.4503 329.61 -164.94 297.15C-168.79 295.84 -172.56 294.55 -176.25 293.28L-176.29 292.53C-172.62 293.79 -168.88 295.07 -165.05 296.37C-69.2503 328.94 -6.96031 366.36 18.2597 428.14C43.4397 489.84 31.5397 575.72 -21.0003 705.23C-44.2603 762.56 -48.4203 815.27 -40.8403 862.75L-41.5603 862.42ZM-32.7403 866.36C-43.2803 815.5 -40.6103 758.35 -15.1903 695.69C37.2797 566.35 49.1897 480.66 24.1097 419.22C-0.930298 357.88 -62.9903 320.65 -158.48 288.19C-164.85 286.02 -170.99 283.92 -176.92 281.85L-176.96 281.1C-171.05 283.16 -164.94 285.25 -158.59 287.41C-62.7903 319.98 -0.500305 357.4 24.7197 419.18C49.8997 480.86 37.9997 566.74 -14.5403 696.25C-39.9203 758.85 -42.5603 815.91 -32.0003 866.69L-32.7403 866.36ZM-23.2103 870.61C-37.1103 816.5 -36.3603 754.87 -8.72031 686.73C43.7497 557.39 55.6597 471.7 30.5797 410.26C5.5397 348.92 -56.5203 311.69 -152.01 279.23C-160.97 276.18 -169.48 273.25 -177.58 270.4L-177.62 269.65C-169.54 272.5 -161.05 275.42 -152.12 278.46C-56.3203 311.03 5.9697 348.45 31.1897 410.23C56.3797 471.91 44.4797 557.79 -8.0603 687.3C-35.6803 755.37 -36.3903 816.92 -22.4603 870.94L-23.2103 870.61ZM-12.9103 875.2C-30.5803 817.9 -32.2203 751.66 -2.25031 677.76C50.2197 548.42 62.1297 462.73 37.0497 401.29C12.0097 339.95 -50.0503 302.72 -145.54 270.26C-157.17 266.3 -168.05 262.54 -178.25 258.89L-178.29 258.14C-168.12 261.78 -157.26 265.54 -145.65 269.48C-49.8503 302.05 12.4397 339.47 37.6597 401.25C62.8397 462.93 50.9397 548.81 -1.60031 678.32C-31.5503 752.15 -29.8603 818.32 -12.1503 875.52L-12.9103 875.2ZM-1.77031 880.16C-23.6303 819.76 -28.2203 748.76 4.2197 668.8C56.6897 539.46 68.5997 453.77 43.5197 392.33C18.4797 331 -43.5803 293.77 -139.07 261.3C-153.46 256.41 -166.71 251.81 -178.91 247.35L-178.95 246.6C-166.77 251.05 -153.54 255.64 -139.17 260.52C-43.3703 293.09 18.9197 330.52 44.1397 392.29C69.3197 453.97 57.4197 539.85 4.8797 669.36C-27.5403 749.27 -22.8903 820.2 -0.980301 880.5L-1.77031 880.16ZM10.2997 885.54C-16.1803 822.15 -24.3503 746.22 10.6997 659.83C63.1697 530.49 75.0797 444.8 49.9997 383.36C24.9597 322.02 -37.1003 284.79 -132.59 252.33C-149.84 246.47 -165.45 241.02 -179.58 235.74L-179.62 234.99C-165.52 240.26 -149.93 245.69 -132.7 251.55C-36.9003 284.12 25.3897 321.54 50.6097 383.32C75.7897 445 63.8897 530.88 11.3497 660.39C-23.6803 746.73 -15.4303 822.59 11.1097 885.88L10.2997 885.54ZM23.3697 891.37C-8.16031 825.12 -20.6503 744.08 17.1597 650.87C69.6297 521.53 81.5397 435.84 56.4597 374.4C31.4197 313.06 -30.6403 275.83 -126.13 243.37C-146.34 236.5 -164.3 230.21 -180.26 224.08L-180.3 223.33C-164.37 229.45 -146.43 235.73 -126.24 242.6C-30.4403 275.17 31.8497 312.59 57.0697 374.37C82.2497 436.05 70.3497 521.93 17.8097 651.44C-19.9903 744.62 -7.40031 825.59 24.1997 891.74L23.3697 891.37ZM37.5797 897.7C0.569702 828.78 -17.1503 742.42 23.6297 641.9C76.0997 512.56 88.0097 426.87 62.9297 365.43C37.8897 304.09 -24.1703 266.86 -119.66 234.4C-142.95 226.48 -163.25 219.33 -180.94 212.32L-180.98 211.57C-163.32 218.58 -143.04 225.71 -119.77 233.63C-23.9703 266.2 38.3197 303.62 63.5397 365.4C88.7197 427.08 76.8197 512.96 24.2797 642.47C-16.4903 742.98 1.36969 829.29 38.4597 898.1L37.5797 897.7ZM53.0797 904.61C10.1697 833.26 -13.8703 741.33 30.0997 632.94C82.5697 503.6 94.4797 417.91 69.3997 356.48C44.3597 295.14 -17.7003 257.91 -113.19 225.45C-139.69 216.44 -162.32 208.43 -181.63 200.48L-181.67 199.73C-162.39 207.67 -139.79 215.68 -113.3 224.68C-17.5003 257.25 44.7897 294.67 70.0097 356.45C95.1897 418.12 83.2897 504 30.7497 633.51C-13.2203 741.91 10.9897 833.8 53.9997 905.02L53.0797 904.61ZM70.0597 912.18C20.8597 838.73 -10.8803 740.93 36.5697 623.98C89.0397 494.64 100.95 408.95 75.8697 347.51C50.8297 286.17 -11.2303 248.94 -106.72 216.48C-136.56 206.34 -161.51 197.45 -182.32 188.49L-182.36 187.74C-161.58 196.69 -136.67 205.56 -106.83 215.71C-11.0303 248.28 51.2597 285.7 76.4797 347.48C101.66 409.16 89.7597 495.04 37.2197 624.55C-10.2503 741.55 21.7297 839.31 71.0397 912.62L70.0597 912.18ZM88.7197 920.5C32.9497 845.41 -8.2303 741.39 43.0397 615.01C95.5097 485.67 107.42 399.98 82.3397 338.54C57.2997 277.2 -4.76031 239.97 -100.25 207.51C-133.6 196.17 -160.84 186.41 -183.02 176.36L-183.06 175.6C-160.92 185.65 -133.71 195.4 -100.35 206.74C-4.55029 239.31 57.7397 276.73 82.9597 338.51C108.14 400.19 96.2397 486.07 43.6997 615.58C-7.61031 742.05 33.9097 846.04 89.7997 920.97L88.7197 920.5ZM109.43 929.73C46.9497 853.65 -6.05031 742.98 49.4997 606.05C101.97 476.71 113.88 391.02 88.7997 329.58C63.7597 268.25 1.69969 231.01 -93.7903 198.55C-130.83 185.96 -160.33 175.31 -183.74 164.05L-183.78 163.29C-160.42 174.55 -130.95 185.19 -93.8903 197.78C1.9097 230.35 64.1997 267.78 89.4197 329.55C114.6 391.23 102.7 477.11 50.1597 606.62C-5.4503 743.7 47.9897 854.37 110.58 930.24L109.43 929.73ZM132.53 940.03C63.5697 863.95 -4.4603 746.06 55.9697 597.08C108.44 467.74 120.35 382.05 95.2697 320.61C70.2297 259.27 8.16969 222.04 -87.3203 189.58C-128.26 175.66 -159.99 164.12 -184.47 151.49L-184.51 150.72C-160.09 163.35 -128.39 174.88 -87.4203 188.8C8.3797 221.37 70.6697 258.79 95.8897 320.57C121.07 382.25 109.17 468.13 56.6297 597.64C-3.9003 746.84 64.7597 864.76 133.8 940.58L132.53 940.03ZM158.61 951.65C84.1597 877.16 -3.75031 751.28 62.4397 588.12C114.91 458.78 126.82 373.09 101.74 311.65C76.6997 250.31 14.6397 213.08 -80.8503 180.62C-125.94 165.29 -159.85 152.85 -185.21 138.66L-185.26 137.88C-159.97 152.07 -126.09 164.51 -80.9603 179.85C14.8397 212.42 77.1297 249.84 102.35 311.62C127.53 373.3 115.63 459.18 63.0897 588.69C-3.25031 752.23 85.6097 878.18 160.06 952.3L158.61 951.65ZM188.46 964.96C111.36 894.89 -4.4203 759.9 68.9097 579.15C121.38 449.81 133.29 364.12 108.21 302.68C83.1697 241.34 21.1097 204.11 -74.3803 171.65C-123.9 154.82 -159.95 141.46 -185.98 125.46L-186.03 124.66C-160.08 140.68 -124.07 154.03 -74.5003 170.88C21.2997 203.45 83.5897 240.87 108.81 302.65C133.99 364.33 122.09 450.21 69.5497 579.72C-4.03032 761.08 113.27 896.22 190.12 965.7L188.46 964.96ZM-186.82 110.96C-160.46 129.16 -122.4 143.43 -68.0203 161.92C27.7797 194.49 90.0697 231.91 115.29 293.69C140.47 355.37 128.57 441.25 76.0297 570.76C-0.100311 758.41 128.12 896.58 204.44 963.73C211.81 970.21 218.7 976.04 224.88 981.19L222.93 980.32C217.21 975.54 210.92 970.19 204.22 964.3C127.66 896.94 -0.960297 758.35 75.3797 570.19C127.85 440.85 139.76 355.16 114.68 293.72C89.6397 232.38 27.5797 195.15 -67.9103 162.69C-122.21 144.23 -160.31 129.95 -186.77 111.77L-186.82 110.96Z" fill="url(#paint2_linear_6920_36625)"/>
<mask id="mask3_6920_36625" style="mask-type:luminance" maskUnits="userSpaceOnUse" x="-187" y="110" width="412" height="872">
<path d="M-64.3303 852.28C-65.1903 814.78 -58.4703 774.46 -41.0603 731.56C11.4097 602.22 23.3197 516.53 -1.7603 455.09C-25.9103 395.94 -84.4903 359.21 -174.27 327.55L-174.31 326.8C-84.2503 358.56 -25.4703 395.49 -1.1503 455.05C24.0297 516.73 12.1297 602.61 -40.4103 732.12C-57.7803 774.94 -64.4903 815.18 -63.6203 852.59L-64.3303 852.28ZM-57.3303 855.4C-60.0703 814.53 -53.8803 770.14 -34.5903 722.59C17.8797 593.25 29.7897 507.56 4.7097 446.12C-20.0703 385.42 -81.1103 348.33 -174.93 316.1L-174.97 315.35C-80.8803 347.68 -19.6303 384.96 5.3197 446.09C30.4997 507.77 18.5997 593.65 -33.9403 723.16C-53.2003 770.63 -59.3603 814.93 -56.6203 855.72L-57.3303 855.4ZM-49.7503 858.77C-54.7203 814.54 -49.3703 766 -28.1203 713.62C24.3497 584.28 36.2597 498.59 11.1797 437.15C-13.8603 375.81 -75.9203 338.58 -171.41 306.12L-175.59 304.7L-175.63 303.95L-171.52 305.35C-75.7203 337.92 -13.4303 375.34 11.7897 437.12C36.9697 498.8 25.0697 584.68 -27.4703 714.2C-48.6903 766.5 -54.0203 814.95 -49.0403 859.1L-49.7503 858.77ZM-41.5603 862.42C-49.1303 814.85 -44.9403 762.07 -21.6503 704.65C30.8197 575.31 42.7297 489.62 17.6497 428.18C-7.39032 366.84 -69.4503 329.61 -164.94 297.15C-168.79 295.84 -172.56 294.55 -176.25 293.28L-176.29 292.53C-172.62 293.79 -168.88 295.07 -165.05 296.37C-69.2503 328.94 -6.96031 366.36 18.2597 428.14C43.4397 489.84 31.5397 575.72 -21.0003 705.23C-44.2603 762.56 -48.4203 815.27 -40.8403 862.75L-41.5603 862.42ZM-32.7403 866.36C-43.2803 815.5 -40.6103 758.35 -15.1903 695.69C37.2797 566.35 49.1897 480.66 24.1097 419.22C-0.930298 357.88 -62.9903 320.65 -158.48 288.19C-164.85 286.02 -170.99 283.92 -176.92 281.85L-176.96 281.1C-171.05 283.16 -164.94 285.25 -158.59 287.41C-62.7903 319.98 -0.500305 357.4 24.7197 419.18C49.8997 480.86 37.9997 566.74 -14.5403 696.25C-39.9203 758.85 -42.5603 815.91 -32.0003 866.69L-32.7403 866.36ZM-23.2103 870.61C-37.1103 816.5 -36.3603 754.87 -8.72031 686.73C43.7497 557.39 55.6597 471.7 30.5797 410.26C5.5397 348.92 -56.5203 311.69 -152.01 279.23C-160.97 276.18 -169.48 273.25 -177.58 270.4L-177.62 269.65C-169.54 272.5 -161.05 275.42 -152.12 278.46C-56.3203 311.03 5.9697 348.45 31.1897 410.23C56.3797 471.91 44.4797 557.79 -8.0603 687.3C-35.6803 755.37 -36.3903 816.92 -22.4603 870.94L-23.2103 870.61ZM-12.9103 875.2C-30.5803 817.9 -32.2203 751.66 -2.25031 677.76C50.2197 548.42 62.1297 462.73 37.0497 401.29C12.0097 339.95 -50.0503 302.72 -145.54 270.26C-157.17 266.3 -168.05 262.54 -178.25 258.89L-178.29 258.14C-168.12 261.78 -157.26 265.54 -145.65 269.48C-49.8503 302.05 12.4397 339.47 37.6597 401.25C62.8397 462.93 50.9397 548.81 -1.60031 678.32C-31.5503 752.15 -29.8603 818.32 -12.1503 875.52L-12.9103 875.2ZM-1.77031 880.16C-23.6303 819.76 -28.2203 748.76 4.2197 668.8C56.6897 539.46 68.5997 453.77 43.5197 392.33C18.4797 331 -43.5803 293.77 -139.07 261.3C-153.46 256.41 -166.71 251.81 -178.91 247.35L-178.95 246.6C-166.77 251.05 -153.54 255.64 -139.17 260.52C-43.3703 293.09 18.9197 330.52 44.1397 392.29C69.3197 453.97 57.4197 539.85 4.8797 669.36C-27.5403 749.27 -22.8903 820.2 -0.980301 880.5L-1.77031 880.16ZM10.2997 885.54C-16.1803 822.15 -24.3503 746.22 10.6997 659.83C63.1697 530.49 75.0797 444.8 49.9997 383.36C24.9597 322.02 -37.1003 284.79 -132.59 252.33C-149.84 246.47 -165.45 241.02 -179.58 235.74L-179.62 234.99C-165.52 240.26 -149.93 245.69 -132.7 251.55C-36.9003 284.12 25.3897 321.54 50.6097 383.32C75.7897 445 63.8897 530.88 11.3497 660.39C-23.6803 746.73 -15.4303 822.59 11.1097 885.88L10.2997 885.54ZM23.3697 891.37C-8.16031 825.12 -20.6503 744.08 17.1597 650.87C69.6297 521.53 81.5397 435.84 56.4597 374.4C31.4197 313.06 -30.6403 275.83 -126.13 243.37C-146.34 236.5 -164.3 230.21 -180.26 224.08L-180.3 223.33C-164.37 229.45 -146.43 235.73 -126.24 242.6C-30.4403 275.17 31.8497 312.59 57.0697 374.37C82.2497 436.05 70.3497 521.93 17.8097 651.44C-19.9903 744.62 -7.40031 825.59 24.1997 891.74L23.3697 891.37ZM37.5797 897.7C0.569702 828.78 -17.1503 742.42 23.6297 641.9C76.0997 512.56 88.0097 426.87 62.9297 365.43C37.8897 304.09 -24.1703 266.86 -119.66 234.4C-142.95 226.48 -163.25 219.33 -180.94 212.32L-180.98 211.57C-163.32 218.58 -143.04 225.71 -119.77 233.63C-23.9703 266.2 38.3197 303.62 63.5397 365.4C88.7197 427.08 76.8197 512.96 24.2797 642.47C-16.4903 742.98 1.36969 829.29 38.4597 898.1L37.5797 897.7ZM53.0797 904.61C10.1697 833.26 -13.8703 741.33 30.0997 632.94C82.5697 503.6 94.4797 417.91 69.3997 356.48C44.3597 295.14 -17.7003 257.91 -113.19 225.45C-139.69 216.44 -162.32 208.43 -181.63 200.48L-181.67 199.73C-162.39 207.67 -139.79 215.68 -113.3 224.68C-17.5003 257.25 44.7897 294.67 70.0097 356.45C95.1897 418.12 83.2897 504 30.7497 633.51C-13.2203 741.91 10.9897 833.8 53.9997 905.02L53.0797 904.61ZM70.0597 912.18C20.8597 838.73 -10.8803 740.93 36.5697 623.98C89.0397 494.64 100.95 408.95 75.8697 347.51C50.8297 286.17 -11.2303 248.94 -106.72 216.48C-136.56 206.34 -161.51 197.45 -182.32 188.49L-182.36 187.74C-161.58 196.69 -136.67 205.56 -106.83 215.71C-11.0303 248.28 51.2597 285.7 76.4797 347.48C101.66 409.16 89.7597 495.04 37.2197 624.55C-10.2503 741.55 21.7297 839.31 71.0397 912.62L70.0597 912.18ZM88.7197 920.5C32.9497 845.41 -8.2303 741.39 43.0397 615.01C95.5097 485.67 107.42 399.98 82.3397 338.54C57.2997 277.2 -4.76031 239.97 -100.25 207.51C-133.6 196.17 -160.84 186.41 -183.02 176.36L-183.06 175.6C-160.92 185.65 -133.71 195.4 -100.35 206.74C-4.55029 239.31 57.7397 276.73 82.9597 338.51C108.14 400.19 96.2397 486.07 43.6997 615.58C-7.61031 742.05 33.9097 846.04 89.7997 920.97L88.7197 920.5ZM109.43 929.73C46.9497 853.65 -6.05031 742.98 49.4997 606.05C101.97 476.71 113.88 391.02 88.7997 329.58C63.7597 268.25 1.69969 231.01 -93.7903 198.55C-130.83 185.96 -160.33 175.31 -183.74 164.05L-183.78 163.29C-160.42 174.55 -130.95 185.19 -93.8903 197.78C1.9097 230.35 64.1997 267.78 89.4197 329.55C114.6 391.23 102.7 477.11 50.1597 606.62C-5.4503 743.7 47.9897 854.37 110.58 930.24L109.43 929.73ZM132.53 940.03C63.5697 863.95 -4.4603 746.06 55.9697 597.08C108.44 467.74 120.35 382.05 95.2697 320.61C70.2297 259.27 8.16969 222.04 -87.3203 189.58C-128.26 175.66 -159.99 164.12 -184.47 151.49L-184.51 150.72C-160.09 163.35 -128.39 174.88 -87.4203 188.8C8.3797 221.37 70.6697 258.79 95.8897 320.57C121.07 382.25 109.17 468.13 56.6297 597.64C-3.9003 746.84 64.7597 864.76 133.8 940.58L132.53 940.03ZM158.61 951.65C84.1597 877.16 -3.75031 751.28 62.4397 588.12C114.91 458.78 126.82 373.09 101.74 311.65C76.6997 250.31 14.6397 213.08 -80.8503 180.62C-125.94 165.29 -159.85 152.85 -185.21 138.66L-185.26 137.88C-159.97 152.07 -126.09 164.51 -80.9603 179.85C14.8397 212.42 77.1297 249.84 102.35 311.62C127.53 373.3 115.63 459.18 63.0897 588.69C-3.25031 752.23 85.6097 878.18 160.06 952.3L158.61 951.65ZM188.46 964.96C111.36 894.89 -4.4203 759.9 68.9097 579.15C121.38 449.81 133.29 364.12 108.21 302.68C83.1697 241.34 21.1097 204.11 -74.3803 171.65C-123.9 154.82 -159.95 141.46 -185.98 125.46L-186.03 124.66C-160.08 140.68 -124.07 154.03 -74.5003 170.88C21.2997 203.45 83.5897 240.87 108.81 302.65C133.99 364.33 122.09 450.21 69.5497 579.72C-4.03032 761.08 113.27 896.22 190.12 965.7L188.46 964.96ZM-186.82 110.96C-160.46 129.16 -122.4 143.43 -68.0203 161.92C27.7797 194.49 90.0697 231.91 115.29 293.69C140.47 355.37 128.57 441.25 76.0297 570.76C-0.100311 758.41 128.12 896.58 204.44 963.73C211.81 970.21 218.7 976.04 224.88 981.19L222.93 980.32C217.21 975.54 210.92 970.19 204.22 964.3C127.66 896.94 -0.960297 758.35 75.3797 570.19C127.85 440.85 139.76 355.16 114.68 293.72C89.6397 232.38 27.5797 195.15 -67.9103 162.69C-122.21 144.23 -160.31 129.95 -186.77 111.77L-186.82 110.96Z" fill="white"/>
</mask>
<g mask="url(#mask3_6920_36625)">
<path d="M-145.959 815.89L-187.539 98.5099L183.301 263.81L224.881 981.19L-145.959 815.89Z" fill="url(#paint3_linear_6920_36625)"/>
</g>
<path d="M49.1809 89.06C49.1809 99.16 44.5109 107.15 33.2009 107.15C21.8909 107.15 12.7109 98.96 12.7109 88.86C12.7109 78.76 21.8809 70.57 33.2009 70.57C44.5209 70.57 49.1809 78.96 49.1809 89.06Z" fill="#0D9ECD"/>
</g>
</g>
<defs>
<linearGradient id="paint0_linear_6920_36625" x1="30.952" y1="-87.7059" x2="988.166" y2="-87.7059" gradientUnits="userSpaceOnUse">
<stop stop-color="white" stop-opacity="0"/>
<stop offset="1" stop-color="#DADBDA"/>
</linearGradient>
<linearGradient id="paint1_linear_6920_36625" x1="30.952" y1="-83.3497" x2="1000.17" y2="-83.3497" gradientUnits="userSpaceOnUse">
<stop stop-color="white" stop-opacity="0"/>
<stop offset="1" stop-color="#DADBDA"/>
</linearGradient>
<linearGradient id="paint2_linear_6920_36625" x1="173.928" y1="998.926" x2="-140.804" y2="94.9332" gradientUnits="userSpaceOnUse">
<stop stop-color="white" stop-opacity="0"/>
<stop offset="1" stop-color="#DADBDA"/>
</linearGradient>
<linearGradient id="paint3_linear_6920_36625" x1="178.043" y1="997.494" x2="-140.635" y2="82.1677" gradientUnits="userSpaceOnUse">
<stop stop-color="white" stop-opacity="0"/>
<stop offset="1" stop-color="#DADBDA"/>
</linearGradient>
<clipPath id="clip0_6920_36625">
<rect width="1440" height="380" fill="white"/>
</clipPath>
</defs>
</svg>
