<svg width="89" height="88" viewBox="0 0 89 88" fill="none" xmlns="http://www.w3.org/2000/svg">
<path d="M0.950607 21.3049L7.95671 14.5391L14.7224 21.5452L0.950607 21.3049Z" fill="#004364"/>
<path d="M67.7034 74.1669L74.4692 81.173L67.4631 87.9387L67.7034 74.1669Z" fill="#004364"/>
<path d="M15.7652 6.76165C17.5892 5.0002 20.4958 5.05094 22.2573 6.87497L81.2609 67.9751C83.0224 69.7991 82.9716 72.7057 81.1476 74.4672L73.2237 82.1192L7.84123 14.4137L15.7652 6.76165Z" fill="#005F8D"/>
<path d="M29.6701 20.7602L29.984 21.0852L24.6781 26.2091L23.8241 25.3247L27.1346 22.1278L23.7027 22.4915L23.5859 22.3706L24.0618 18.9458L20.7513 22.1427L19.8974 21.2584L25.2032 16.1346L25.5171 16.4596L24.8612 21.2559L29.6701 20.7602ZM31.2396 29.3281C30.9221 29.6347 30.5889 29.8493 30.24 29.972C29.8962 30.0899 29.556 30.1359 29.2196 30.1102C28.8882 30.0797 28.5703 29.9875 28.2659 29.8335C27.9713 29.6798 27.7073 29.482 27.4737 29.2401C27.2401 28.9982 27.0492 28.7249 26.901 28.4201C26.7626 28.1155 26.684 27.7971 26.665 27.4649C26.6559 27.1328 26.7163 26.797 26.8461 26.4575C26.9809 26.113 27.207 25.7876 27.5244 25.481C27.8369 25.1793 28.16 24.9695 28.494 24.8514C28.8379 24.7336 29.1731 24.6874 29.4996 24.7129C29.8261 24.7385 30.1366 24.8281 30.4312 24.9819C30.7308 25.1307 30.9949 25.3236 31.2236 25.5604C31.4669 25.8124 31.6651 26.0932 31.8182 26.4031C31.9713 26.7129 32.0574 27.0339 32.0763 27.3661C32.1004 27.6935 32.045 28.0245 31.9104 28.359C31.7806 28.6985 31.557 29.0216 31.2396 29.3281ZM28.3127 26.2973C28.1162 26.4871 27.9716 26.6852 27.8788 26.8916C27.7959 27.0982 27.7552 27.3031 27.7566 27.5062C27.7631 27.7045 27.8043 27.8935 27.8805 28.0731C27.9665 28.253 28.0776 28.4134 28.2139 28.5545C28.3453 28.6906 28.4994 28.7998 28.6763 28.8821C28.8532 28.9645 29.0382 29.0098 29.2312 29.0181C29.4293 29.0216 29.6306 28.983 29.8352 28.9023C30.0445 28.8267 30.2475 28.694 30.444 28.5043C30.6405 28.3145 30.7802 28.1163 30.8631 27.9097C30.9459 27.7031 30.9841 27.5006 30.9777 27.3024C30.9713 27.1041 30.925 26.9151 30.839 26.7352C30.753 26.5554 30.6393 26.3973 30.498 26.2611C30.3616 26.1299 30.2049 26.0232 30.028 25.9408C29.861 25.8586 29.681 25.8134 29.488 25.8051C29.2999 25.7919 29.1037 25.8256 28.8992 25.9063C28.6997 25.982 28.5042 26.1124 28.3127 26.2973ZM31.9711 31.6134C31.8803 31.7109 31.8239 31.8189 31.802 31.9374C31.7852 32.051 31.7906 32.1675 31.8182 32.2869C31.8507 32.4113 31.9006 32.5336 31.9679 32.6536C32.0401 32.7688 32.125 32.8768 32.2223 32.9776C32.3196 33.0784 32.4245 33.1718 32.5369 33.258C32.6544 33.3393 32.7722 33.4008 32.8904 33.4425C33.0134 33.4893 33.1345 33.5038 33.2537 33.486C33.3828 33.4685 33.5052 33.4087 33.621 33.3067C33.7872 33.1461 33.8301 32.9586 33.7497 32.7442C33.6692 32.5298 33.5273 32.287 33.324 32.016C33.1691 31.8052 33.0144 31.5895 32.8597 31.3688C32.7099 31.1532 32.5923 30.9356 32.507 30.7162C32.4315 30.4969 32.4056 30.2785 32.4292 30.0609C32.4577 29.8484 32.5728 29.6399 32.7745 29.4353C32.9711 29.2455 33.1812 29.1254 33.405 29.0748C33.6337 29.0292 33.864 29.0308 34.096 29.0794C34.3328 29.1331 34.564 29.2312 34.7894 29.3739C35.0147 29.5165 35.2223 29.6861 35.4121 29.8826C35.6165 30.0942 35.786 30.3152 35.9207 30.5454C36.0602 30.7807 36.1503 31.0151 36.1908 31.2486C36.2412 31.4823 36.2373 31.7052 36.1791 31.9172C36.1209 32.1292 35.9987 32.3203 35.8124 32.4904L35.1117 31.7648C35.2024 31.6772 35.2537 31.579 35.2655 31.4702C35.2773 31.3615 35.2619 31.2497 35.2193 31.1351C35.1866 31.0205 35.1292 30.9056 35.047 30.7902C34.9697 30.6799 34.8848 30.5769 34.7923 30.4811C34.6999 30.3854 34.5973 30.3043 34.4845 30.238C34.3767 30.1667 34.2637 30.1152 34.1454 30.0834C34.0369 30.0518 33.9305 30.0475 33.8261 30.0704C33.7267 30.0885 33.6391 30.139 33.5633 30.2219C33.417 30.3729 33.3843 30.5457 33.4651 30.7403C33.5558 30.9351 33.7222 31.1931 33.9643 31.5144C34.124 31.7302 34.2738 31.9458 34.4137 32.1613C34.5536 32.3768 34.6515 32.589 34.7073 32.798C34.768 33.0121 34.7741 33.2252 34.7259 33.4374C34.6776 33.6496 34.5451 33.8603 34.3284 34.0695C34.1269 34.2642 33.9092 34.3867 33.6755 34.4371C33.4418 34.4875 33.2065 34.4859 32.9697 34.4322C32.7379 34.3737 32.5068 34.2706 32.2766 34.1229C32.0463 33.9752 31.8339 33.8006 31.6393 33.599C31.4446 33.3975 31.2701 33.1814 31.1156 32.9508C30.9659 32.7253 30.861 32.4906 30.8009 32.2469C30.7456 32.0081 30.7424 31.7678 30.7912 31.5259C30.845 31.2792 30.978 31.0387 31.1902 30.8047L31.9711 31.6134ZM38.9843 33.7481L40.2032 35.0104L39.6137 35.5797L38.3948 34.3175L36.7849 35.8721C36.4725 36.1738 36.3092 36.4484 36.2949 36.6958C36.2857 36.9384 36.3735 37.1604 36.5582 37.3617C36.748 37.5583 37.0099 37.7387 37.3439 37.903L36.8044 38.5847C36.5983 38.4721 36.4097 38.3524 36.2385 38.2256C36.0623 38.1036 35.9061 37.9721 35.7698 37.831C35.5801 37.6345 35.435 37.4288 35.3347 37.2141C35.2345 36.9993 35.1888 36.7756 35.1978 36.5429C35.2069 36.3102 35.273 36.0711 35.3961 35.8256C35.5242 35.5851 35.7217 35.3359 35.9888 35.078L37.6138 33.5087L36.9514 32.7169L37.488 32.1987L38.2033 32.9394L39.4098 31.935L40.1105 32.6606L38.9843 33.7481ZM39.6086 41.67L44.8993 36.5608L47.016 38.7527C47.2982 39.0449 47.5008 39.3556 47.6239 39.6847C47.7469 40.0138 47.8007 40.3417 47.7851 40.6684C47.7745 40.9902 47.6948 41.3009 47.5459 41.6005C47.4018 41.9051 47.2039 42.1791 46.9519 42.4224C46.705 42.6608 46.4294 42.8442 46.1249 42.9727C45.8205 43.1011 45.5048 43.1674 45.1777 43.1716C44.8558 43.171 44.5325 43.1034 44.2078 42.9689C43.8931 42.8346 43.5947 42.6214 43.3125 42.3291L42.0498 41.0215L40.4625 42.5543L39.6086 41.67ZM44.0834 41.5846C44.2294 41.7358 44.3885 41.8451 44.5607 41.9125C44.7377 41.9849 44.9179 42.0203 45.1013 42.0185C45.2896 42.0119 45.4736 41.9705 45.6533 41.8944C45.838 41.8134 46.006 41.6999 46.1571 41.5539C46.3083 41.408 46.425 41.2465 46.5074 41.0696C46.5996 40.8929 46.6498 40.713 46.658 40.5298C46.6662 40.3467 46.6371 40.1653 46.5709 39.9858C46.5047 39.8063 46.3986 39.641 46.2526 39.4898L44.9753 38.1672L42.8061 40.2619L44.0834 41.5846ZM49.6535 48.3963C49.3361 48.7029 49.0029 48.9175 48.654 49.0402C48.3101 49.1581 47.97 49.2041 47.6336 49.1785C47.3022 49.1479 46.9843 49.0557 46.6798 48.9017C46.3853 48.748 46.1212 48.5502 45.8876 48.3083C45.6541 48.0664 45.4632 47.7931 45.3149 47.4883C45.1766 47.1837 45.0979 46.8653 45.079 46.5331C45.0699 46.201 45.1302 45.8652 45.26 45.5257C45.3948 45.1812 45.621 44.8558 45.9384 44.5492C46.2508 44.2475 46.574 44.0377 46.908 43.9196C47.2518 43.8018 47.587 43.7556 47.9135 43.7812C48.24 43.8067 48.5506 43.8963 48.8451 44.0501C49.1447 44.199 49.4089 44.3918 49.6375 44.6286C49.8808 44.8806 50.0791 45.1615 50.2322 45.4713C50.3853 45.7811 50.4713 46.1021 50.4903 46.4343C50.5143 46.7617 50.459 47.0927 50.3243 47.4272C50.1946 47.7667 49.971 48.0898 49.6535 48.3963ZM46.7267 45.3655C46.5302 45.5553 46.3855 45.7534 46.2927 45.9598C46.2099 46.1664 46.1692 46.3713 46.1706 46.5744C46.177 46.7727 46.2183 46.9617 46.2944 47.1413C46.3804 47.3212 46.4916 47.4816 46.6278 47.6227C46.7592 47.7588 46.9134 47.868 47.0903 47.9503C47.2672 48.0327 47.4521 48.078 47.6452 48.0863C47.8433 48.0898 48.0446 48.0512 48.2491 47.9706C48.4585 47.8949 48.6614 47.7623 48.8579 47.5725C49.0545 47.3827 49.1942 47.1845 49.277 46.9779C49.3599 46.7713 49.3981 46.5688 49.3917 46.3706C49.3852 46.1723 49.339 45.9833 49.2529 45.8034C49.1669 45.6236 49.0532 45.4655 48.912 45.3293C48.7755 45.1981 48.6189 45.0914 48.442 45.009C48.275 44.9269 48.095 44.8816 47.9019 44.8733C47.7139 44.8601 47.5176 44.8938 47.3131 44.9745C47.1136 45.0502 46.9182 45.1806 46.7267 45.3655ZM52.5841 49.0109C52.9622 48.9184 53.3062 48.9318 53.6162 49.0512C53.9262 49.1705 54.2078 49.3612 54.4608 49.6232C54.7187 49.8903 54.897 50.1758 54.9957 50.4797C55.0944 50.7836 55.1238 51.0863 55.0839 51.3878C55.0488 51.6943 54.952 51.9923 54.7934 52.2818C54.6347 52.5714 54.432 52.8353 54.1851 53.0738C53.8928 53.356 53.5771 53.5635 53.2379 53.6963C52.9086 53.8292 52.5781 53.8953 52.2462 53.8945C51.9193 53.8887 51.606 53.8164 51.3062 53.6774C51.0065 53.5384 50.7449 53.3431 50.5214 53.0915C50.3855 52.9306 50.2648 52.7502 50.1593 52.5502C50.0538 52.3502 49.9734 52.1308 49.9181 51.8921L47.8169 53.9212L47.0214 53.0973L51.3673 48.9005C51.4731 48.7983 51.5638 48.7107 51.6394 48.6377C51.72 48.5599 51.7734 48.484 51.7994 48.4102C51.8354 48.3365 51.8392 48.2598 51.8109 48.18C51.7874 48.1053 51.7246 48.015 51.6224 47.9092L52.182 47.3542C52.3582 47.4762 52.5071 47.6002 52.6288 47.7261C52.7553 47.8571 52.8421 47.9924 52.8892 48.1319C52.9363 48.2715 52.9363 48.4127 52.8892 48.5555C52.847 48.7034 52.7453 48.8552 52.5841 49.0109ZM50.6291 51.1763C50.6693 51.4296 50.742 51.6612 50.8473 51.8711C50.9527 52.0811 51.0809 52.2542 51.2321 52.3906C51.3685 52.5218 51.5228 52.6211 51.695 52.6885C51.8673 52.7559 52.0475 52.7863 52.2359 52.7797C52.4243 52.773 52.6133 52.7268 52.8031 52.6409C53.0027 52.5553 53.1958 52.4224 53.3822 52.2424C53.5334 52.0964 53.6575 51.9375 53.7546 51.7658C53.8517 51.5942 53.9118 51.4144 53.9349 51.2265C53.9629 51.0437 53.9487 50.8627 53.8924 50.6834C53.8361 50.504 53.7276 50.3312 53.5671 50.165C53.4308 50.0239 53.2815 49.9197 53.1192 49.8525C52.9569 49.7852 52.7891 49.7526 52.6157 49.7545C52.4471 49.7615 52.2805 49.8007 52.1157 49.8721C51.9561 49.9387 51.8082 50.0377 51.6721 50.169L50.6291 51.1763ZM60.1487 55.6494L57.5487 58.1602C57.4378 58.2673 57.3496 58.3574 57.2839 58.4305C57.2231 58.5087 57.1847 58.5799 57.1687 58.644C57.1527 58.7081 57.1615 58.7727 57.1951 58.8377C57.2385 58.9028 57.3066 58.9734 57.3994 59.0493L56.8701 59.5751C56.738 59.4786 56.6013 59.3673 56.4598 59.241C56.3182 59.1245 56.2065 58.9938 56.1248 58.8487C56.048 58.7087 56.021 58.5546 56.0437 58.3866C56.0713 58.2236 56.1834 58.0472 56.3799 57.8574C56.0114 57.9699 55.6673 57.9565 55.3477 57.8171C55.0381 57.678 54.7592 57.4799 54.511 57.2229C54.2677 56.971 54.1012 56.7179 54.0115 56.4637C53.9317 56.2097 53.9113 55.9616 53.9502 55.7195C53.9942 55.4726 54.0875 55.2315 54.2303 54.9962C54.3831 54.7611 54.5703 54.5365 54.792 54.3224L56.9007 52.286L57.7036 53.1174L55.5949 55.1538C55.2977 55.431 55.1342 55.7204 55.1041 56.0221C55.079 56.3288 55.1832 56.603 55.4167 56.8449C55.6698 57.1069 55.9671 57.2434 56.3087 57.2543C56.6554 57.2604 56.9748 57.1223 57.2671 56.84L59.3531 54.8256L60.1487 55.6494ZM64.0869 55.9461L59.8694 60.0189C59.6125 60.267 59.4626 60.4799 59.4199 60.6575C59.3771 60.8351 59.4531 61.0247 59.6477 61.2262C59.7207 61.3018 59.8159 61.3852 59.9332 61.4764L59.3275 62.1198C59.215 62.0336 59.1076 61.9475 59.005 61.8615C58.9074 61.7805 58.8172 61.6972 58.7344 61.6116C58.3843 61.2389 58.2273 60.8646 58.2636 60.4887C58.3098 60.113 58.5798 59.6868 59.0736 59.2099L63.2986 55.1298L64.0869 55.9461ZM62.948 64.6135C62.7686 64.6698 62.5875 64.6889 62.4045 64.6709C62.2264 64.6578 62.0512 64.6176 61.879 64.5502C61.7068 64.4828 61.5424 64.3933 61.3859 64.2815C61.2342 64.1749 61.0975 64.0585 60.9758 63.9326C60.7617 63.7109 60.6071 63.4902 60.5118 63.2706C60.4166 63.0509 60.3658 62.837 60.3595 62.6289C60.3533 62.4207 60.3863 62.2281 60.4588 62.051C60.5411 61.8741 60.6529 61.7175 60.7939 61.5813C60.9653 61.4158 61.1532 61.2928 61.3577 61.2121C61.5622 61.1315 61.7759 61.0956 61.9986 61.1044C62.2214 61.1133 62.4482 61.1767 62.6789 61.2946C62.9147 61.4077 63.147 61.5827 63.3757 61.8195C63.546 61.9959 63.706 62.1968 63.8556 62.4224C64.0052 62.6479 64.1126 62.8851 64.1776 63.1339L64.6311 62.696C64.7822 62.55 64.8618 62.3904 64.8698 62.2171C64.8826 62.0489 64.8459 61.8799 64.7597 61.7099C64.6834 61.5402 64.5674 61.3747 64.4117 61.2134C64.2659 61.0524 64.1075 60.9035 63.9365 60.7667C63.7704 60.635 63.6015 60.5206 63.4298 60.4235C63.268 60.3265 63.133 60.2573 63.0247 60.2158L63.4977 59.5107C63.7735 59.6047 64.0435 59.7481 64.3076 59.9409C64.5766 60.1388 64.8279 60.3587 65.0615 60.6006C65.2756 60.8223 65.4598 61.0534 65.6141 61.2939C65.7684 61.5343 65.8682 61.7788 65.9134 62.0273C65.9685 62.276 65.9567 62.5259 65.878 62.7772C65.7993 63.0285 65.634 63.2758 65.3821 63.519L63.946 64.9058C63.8604 64.9886 63.7848 65.0615 63.7193 65.1248C63.6586 65.1931 63.6154 65.2592 63.5895 65.3232C63.5735 65.3873 63.5798 65.4543 63.6083 65.5241C63.6368 65.594 63.7047 65.6744 63.8121 65.7655L63.3354 66.255C63.1641 66.1381 63.0151 66.0191 62.8884 65.898C62.7615 65.7868 62.672 65.6638 62.6199 65.5292C62.5726 65.3995 62.5701 65.2608 62.6123 65.1129C62.6595 64.9602 62.7714 64.7937 62.948 64.6135ZM63.6485 63.6448C63.6163 63.5006 63.5329 63.3134 63.3982 63.0832C63.2635 62.8529 63.1086 62.6471 62.9334 62.4657C62.7437 62.2692 62.5278 62.1515 62.2857 62.1126C62.0436 62.0737 61.8243 62.1491 61.6278 62.3389C61.4666 62.4946 61.3942 62.6667 61.4108 62.8553C61.4273 63.0438 61.5475 63.254 61.7713 63.4857C61.8735 63.5916 61.9932 63.6853 62.1305 63.767C62.2726 63.8537 62.4227 63.9132 62.5806 63.9457C62.7436 63.9733 62.9122 63.9664 63.0863 63.9248C63.2703 63.8835 63.4577 63.7901 63.6485 63.6448ZM68.1707 65.0303C68.3055 64.9683 68.4472 64.9385 68.5958 64.9411C68.7444 64.9437 68.8901 64.9686 69.0329 65.0156C69.1758 65.0627 69.3133 65.1295 69.4455 65.216C69.5827 65.3076 69.7047 65.4088 69.8118 65.5197C69.9628 65.666 70.0862 65.8341 70.182 66.024C70.2777 66.2139 70.3387 66.4082 70.365 66.6068L69.4574 67.0888C69.3895 66.726 69.229 66.4136 68.9759 66.1516C68.8592 66.0306 68.7272 65.9292 68.58 65.8474C68.4377 65.7706 68.2899 65.7235 68.1366 65.7059C67.9833 65.6884 67.827 65.7079 67.6674 65.7646C67.513 65.8164 67.3627 65.9129 67.2165 66.054L65.1154 68.0831L64.3271 67.2668L66.9649 64.7195C67.0455 64.6416 67.1136 64.571 67.1692 64.5075C67.2248 64.4441 67.2606 64.3803 67.2766 64.3162C67.2974 64.2571 67.2887 64.1926 67.2503 64.1226C67.2169 64.0477 67.1515 63.9648 67.054 63.8739L67.606 63.3262C67.7676 63.4331 67.9116 63.552 68.0382 63.683C68.1695 63.8191 68.2662 63.9595 68.328 64.1042C68.3948 64.254 68.4169 64.4079 68.3943 64.5661C68.3816 64.7244 68.3071 64.8791 68.1707 65.0303Z" fill="white"/>
</svg>
