<svg width="134" height="134" viewBox="0 0 134 134" fill="none" xmlns="http://www.w3.org/2000/svg">
<path d="M0 32.6272L10.4873 22.1399L20.9746 32.6272H0Z" fill="#007892"/>
<path d="M101.376 113.03L111.863 123.517L101.376 134.004L101.376 113.03Z" fill="#007892"/>
<path d="M27.6851 4.94376C30.4155 2.2134 34.8423 2.21339 37.5727 4.94376L129.032 96.4032C131.763 99.1336 131.763 103.56 129.032 106.291L111.003 124.32L9.6556 22.9733L27.6851 4.94376Z" fill="#00A6CA"/>
<path d="M47.9702 28.5493L48.4567 29.0358L40.5144 36.978L39.1907 35.6543L44.1461 30.6989L38.9305 31.3438L38.7495 31.1627L39.3831 25.9358L34.4277 30.8912L33.104 29.5675L41.0462 21.6253L41.5327 22.1118L40.6615 29.4318L47.9702 28.5493ZM50.5874 41.5525C50.1123 42.0277 49.6107 42.3633 49.0827 42.5595C48.5623 42.748 48.0456 42.8272 47.5327 42.797C47.0274 42.7593 46.5409 42.6273 46.0733 42.4011C45.6207 42.1748 45.2134 41.8806 44.8514 41.5186C44.4893 41.1566 44.1914 40.7455 43.9576 40.2854C43.7389 39.8253 43.6106 39.3426 43.5729 38.8372C43.5503 38.3319 43.6333 37.819 43.8218 37.2986C44.0179 36.7706 44.3536 36.269 44.8288 35.7939C45.2964 35.3262 45.7829 34.9981 46.2882 34.8096C46.8087 34.621 47.3178 34.5418 47.8156 34.572C48.3134 34.6021 48.7886 34.7304 49.2411 34.9566C49.7012 35.1754 50.1085 35.462 50.463 35.8165C50.8401 36.1936 51.1493 36.616 51.3907 37.0836C51.6321 37.5513 51.7716 38.0377 51.8093 38.5431C51.8546 39.0409 51.7791 39.5462 51.583 40.0591C51.3945 40.5796 51.0626 41.0774 50.5874 41.5525ZM46.0506 37.0157C45.7565 37.3099 45.5415 37.6154 45.4058 37.9321C45.2851 38.2489 45.2285 38.5619 45.236 38.8712C45.2511 39.1729 45.319 39.4595 45.4397 39.731C45.5755 40.0026 45.7489 40.2439 45.9601 40.4551C46.1638 40.6587 46.4014 40.8209 46.6729 40.9416C46.9444 41.0623 47.2273 41.1264 47.5214 41.1339C47.8231 41.1339 48.1286 41.0698 48.4378 40.9416C48.7546 40.8209 49.0601 40.6135 49.3542 40.3193C49.6484 40.0252 49.8558 39.7197 49.9765 39.4029C50.0972 39.0861 50.15 38.7769 50.1349 38.4752C50.1198 38.1735 50.0444 37.8869 49.9086 37.6154C49.7728 37.3438 49.5956 37.1062 49.3769 36.9026C49.1657 36.7065 48.9243 36.5481 48.6528 36.4274C48.3963 36.3067 48.121 36.2426 47.8269 36.2351C47.5403 36.22 47.2423 36.2766 46.9331 36.4048C46.6314 36.5255 46.3372 36.7291 46.0506 37.0157ZM51.762 45.0125C51.6263 45.1633 51.5433 45.3293 51.5131 45.5103C51.4905 45.6838 51.5018 45.861 51.5471 46.042C51.5999 46.2306 51.6791 46.4154 51.7847 46.5964C51.8978 46.7699 52.0298 46.9321 52.1806 47.0829C52.3315 47.2338 52.4936 47.3733 52.6671 47.5015C52.8481 47.6222 53.0292 47.7127 53.2102 47.773C53.3987 47.8409 53.5835 47.8598 53.7646 47.8296C53.9607 47.7994 54.1454 47.7052 54.3189 47.5468C54.5678 47.2979 54.6282 47.0112 54.4999 46.6869C54.3717 46.3626 54.1492 45.9968 53.8324 45.5895C53.5911 45.2727 53.3497 44.9484 53.1084 44.6165C52.8745 44.2922 52.6897 43.9641 52.554 43.6322C52.4333 43.3004 52.388 42.9685 52.4182 42.6366C52.4559 42.3123 52.6256 41.9917 52.9273 41.6749C53.2215 41.3808 53.5383 41.1922 53.8777 41.1093C54.2246 41.0338 54.5754 41.0301 54.9299 41.098C55.2919 41.1734 55.6464 41.3167 55.9934 41.5279C56.3403 41.7391 56.6609 41.9917 56.955 42.2859C57.2718 42.6027 57.5358 42.9345 57.747 43.2815C57.9657 43.636 58.109 43.9905 58.1769 44.345C58.2599 44.6995 58.2599 45.0389 58.1769 45.3632C58.0939 45.6875 57.9129 45.9817 57.6338 46.2457L56.5477 45.1596C56.6835 45.0238 56.7589 44.873 56.774 44.707C56.7891 44.5411 56.7627 44.3714 56.6948 44.1979C56.642 44.0244 56.5515 43.851 56.4233 43.6775C56.3026 43.5115 56.1706 43.3569 56.0273 43.2136C55.884 43.0703 55.7256 42.9496 55.5521 42.8516C55.3862 42.746 55.2127 42.6706 55.0317 42.6253C54.8658 42.58 54.7036 42.5763 54.5452 42.614C54.3943 42.6442 54.2624 42.7234 54.1492 42.8516C53.9305 43.0854 53.8852 43.3494 54.0135 43.6435C54.1568 43.9377 54.417 44.3261 54.7941 44.8088C55.043 45.1332 55.2768 45.4575 55.4955 45.7818C55.7143 46.1062 55.8689 46.4267 55.9594 46.7435C56.0575 47.0678 56.0725 47.3921 56.0047 47.7165C55.9368 48.0408 55.7407 48.3651 55.4164 48.6894C55.1147 48.9911 54.7866 49.1835 54.4321 49.2664C54.0776 49.3494 53.7193 49.3532 53.3573 49.2778C53.0028 49.1948 52.6483 49.0439 52.2938 48.8252C51.9393 48.6065 51.6112 48.3463 51.3095 48.0446C51.0078 47.7429 50.7362 47.4185 50.4949 47.0716C50.2611 46.7322 50.0951 46.3777 49.9971 46.0081C49.9066 45.6461 49.8953 45.2803 49.9631 44.9107C50.0386 44.5335 50.2347 44.164 50.5515 43.8019L51.762 45.0125ZM62.4966 48.0764L64.386 49.9658L63.5035 50.8482L61.6141 48.9589L59.2043 51.3687C58.7367 51.8363 58.4953 52.2587 58.4802 52.6358C58.4727 53.0054 58.6122 53.341 58.8989 53.6427C59.193 53.9369 59.5965 54.2046 60.1094 54.446L59.3061 55.4982C58.9894 55.3322 58.699 55.155 58.435 54.9664C58.1635 54.7854 57.9221 54.5893 57.7109 54.3781C57.4168 54.084 57.1905 53.7747 57.0321 53.4504C56.8737 53.1261 56.7983 52.7867 56.8058 52.4322C56.8134 52.0777 56.9076 51.7119 57.0887 51.3347C57.2772 50.9652 57.5714 50.5805 57.9711 50.1807L60.4036 47.7483L59.374 46.5603L60.1773 45.7571L61.286 46.8658L63.0962 45.3045L64.1824 46.3906L62.4966 48.0764ZM63.6576 60.1212L71.5772 52.2016L74.8582 55.4825C75.2956 55.92 75.6124 56.3876 75.8085 56.8854C76.0046 57.3832 76.0951 57.881 76.08 58.3788C76.0725 58.8691 75.9594 59.3443 75.7406 59.8044C75.5294 60.272 75.2353 60.6944 74.8582 61.0715C74.4886 61.4411 74.0737 61.7277 73.6137 61.9313C73.1536 62.135 72.6746 62.2444 72.1768 62.2594C71.6866 62.267 71.1925 62.1727 70.6947 61.9766C70.212 61.7805 69.7519 61.4637 69.3144 61.0263L67.3572 59.069L64.9813 61.4449L63.6576 60.1212ZM70.4684 59.8723C70.6947 60.0985 70.9398 60.2607 71.2038 60.3587C71.4754 60.4643 71.7507 60.5134 72.0297 60.5058C72.3164 60.4907 72.5954 60.4229 72.867 60.3022C73.146 60.174 73.3987 59.9967 73.625 59.7704C73.8512 59.5442 74.0247 59.2953 74.1454 59.0237C74.2812 58.7522 74.3528 58.4769 74.3604 58.1978C74.3679 57.9188 74.3189 57.6435 74.2133 57.3719C74.1077 57.1004 73.9418 56.8515 73.7155 56.6252L71.7356 54.6453L68.4885 57.8924L70.4684 59.8723ZM79.1302 70.0953C78.6551 70.5705 78.1535 70.9062 77.6255 71.1023C77.1051 71.2908 76.5884 71.37 76.0755 71.3398C75.5702 71.3021 75.0837 71.1701 74.6161 70.9439C74.1635 70.7176 73.7562 70.4234 73.3942 70.0614C73.0321 69.6994 72.7342 69.2883 72.5004 68.8282C72.2817 68.3681 72.1535 67.8854 72.1157 67.38C72.0931 66.8747 72.1761 66.3618 72.3646 65.8414C72.5607 65.3134 72.8964 64.8118 73.3716 64.3367C73.8392 63.869 74.3257 63.5409 74.831 63.3524C75.3515 63.1638 75.8606 63.0846 76.3584 63.1148C76.8562 63.1449 77.3314 63.2732 77.7839 63.4994C78.244 63.7182 78.6513 64.0048 79.0058 64.3593C79.3829 64.7364 79.6922 65.1588 79.9335 65.6264C80.1749 66.0941 80.3144 66.5805 80.3521 67.0859C80.3974 67.5837 80.3219 68.089 80.1258 68.6019C79.9373 69.1224 79.6054 69.6202 79.1302 70.0953ZM74.5934 65.5585C74.2993 65.8527 74.0843 66.1582 73.9486 66.475C73.8279 66.7917 73.7713 67.1047 73.7789 67.414C73.7939 67.7157 73.8618 68.0023 73.9825 68.2738C74.1183 68.5454 74.2917 68.7867 74.5029 68.9979C74.7066 69.2016 74.9442 69.3637 75.2157 69.4844C75.4872 69.6051 75.7701 69.6692 76.0642 69.6767C76.3659 69.6767 76.6714 69.6126 76.9806 69.4844C77.2974 69.3637 77.6029 69.1563 77.897 68.8621C78.1912 68.568 78.3986 68.2625 78.5193 67.9457C78.64 67.6289 78.6928 67.3197 78.6777 67.018C78.6626 66.7163 78.5872 66.4297 78.4514 66.1582C78.3157 65.8866 78.1384 65.6491 77.9197 65.4454C77.7085 65.2493 77.4671 65.0909 77.1956 64.9702C76.9391 64.8495 76.6638 64.7854 76.3697 64.7779C76.0831 64.7628 75.7852 64.8194 75.4759 64.9476C75.1742 65.0683 74.8801 65.2719 74.5934 65.5585ZM83.6084 70.9531C84.1817 70.8023 84.7059 70.8136 85.181 70.9871C85.6562 71.1606 86.0899 71.4434 86.4821 71.8356C86.8819 72.2354 87.1609 72.6653 87.3193 73.1254C87.4777 73.5855 87.5305 74.0456 87.4777 74.5057C87.4325 74.9733 87.2929 75.4296 87.0591 75.8746C86.8253 76.3196 86.5236 76.7269 86.154 77.0965C85.7166 77.534 85.2414 77.8583 84.7285 78.0695C84.2307 78.2807 83.7291 78.39 83.2238 78.3976C82.726 78.3976 82.247 78.2957 81.7869 78.0921C81.3268 77.8885 80.9233 77.5981 80.5764 77.2209C80.3652 76.9796 80.1766 76.7081 80.0107 76.4064C79.8447 76.1047 79.7165 75.7728 79.626 75.4108L76.4808 78.556L75.2476 77.3228L81.753 70.8174C81.9114 70.659 82.0471 70.5232 82.1603 70.4101C82.281 70.2894 82.3602 70.1725 82.3979 70.0594C82.4507 69.9462 82.4544 69.8293 82.4092 69.7086C82.3715 69.5955 82.2734 69.4597 82.115 69.3013L82.9522 68.4415C83.2238 68.6225 83.4538 68.8073 83.6424 68.9959C83.8385 69.192 83.9742 69.3956 84.0497 69.6068C84.1251 69.818 84.1289 70.033 84.061 70.2517C84.0006 70.478 83.8498 70.7118 83.6084 70.9531ZM80.6895 74.302C80.7574 74.6867 80.8743 75.0374 81.0402 75.3542C81.2062 75.671 81.406 75.9312 81.6398 76.1348C81.851 76.3309 82.0886 76.478 82.3526 76.5761C82.6166 76.6741 82.8919 76.7156 83.1785 76.7005C83.4651 76.6854 83.7517 76.61 84.0384 76.4742C84.3401 76.3385 84.6304 76.1311 84.9095 75.852C85.1358 75.6257 85.3206 75.3806 85.4639 75.1166C85.6072 74.8526 85.6939 74.5773 85.7241 74.2907C85.7618 74.0116 85.7354 73.7363 85.6449 73.4648C85.5544 73.1933 85.3847 72.933 85.1358 72.6841C84.9246 72.473 84.6946 72.3183 84.4456 72.2203C84.1967 72.1222 83.9403 72.077 83.6763 72.0845C83.4199 72.0996 83.1672 72.1637 82.9183 72.2769C82.6769 72.3824 82.4544 72.5371 82.2508 72.7407L80.6895 74.302ZM95.3024 80.8595L91.4105 84.7515C91.2445 84.9174 91.1125 85.0569 91.0145 85.1701C90.924 85.2907 90.8674 85.4001 90.8448 85.4982C90.8222 85.5962 90.8372 85.6943 90.89 85.7923C90.9579 85.8904 91.0635 85.996 91.2068 86.1091L90.4149 86.9237C90.2112 86.7804 90 86.6144 89.7813 86.4259C89.5626 86.2524 89.3891 86.0563 89.2609 85.8376C89.1402 85.6264 89.0949 85.3926 89.1251 85.1361C89.1628 84.8872 89.3287 84.6157 89.6229 84.3215C89.0648 84.5025 88.5406 84.4912 88.0503 84.2876C87.5751 84.0839 87.1452 83.7898 86.7605 83.4051C86.3834 83.028 86.1232 82.6471 85.9799 82.2624C85.8517 81.8778 85.814 81.5006 85.8668 81.1311C85.9271 80.7539 86.0629 80.3844 86.274 80.0223C86.5003 79.6603 86.7794 79.3133 87.1113 78.9815L90.2678 75.8249L91.5123 77.0694L88.3558 80.226C87.9108 80.6559 87.6694 81.1009 87.6317 81.561C87.6015 82.0286 87.7675 82.4435 88.1295 82.8055C88.5217 83.1977 88.978 83.3976 89.4985 83.4051C90.0264 83.4051 90.5091 83.1864 90.9466 82.7489L94.0692 79.6263L95.3024 80.8595ZM101.306 81.2066L94.9933 87.5197C94.6086 87.9044 94.3861 88.2324 94.3258 88.504C94.2654 88.7755 94.3861 89.0621 94.6878 89.3638C94.801 89.477 94.948 89.6014 95.1291 89.7372L94.224 90.7328C94.0505 90.6046 93.8845 90.4763 93.7262 90.3481C93.5753 90.2274 93.4358 90.103 93.3076 89.9748C92.7645 89.4166 92.5156 88.8509 92.5608 88.2777C92.6212 87.7045 93.0209 87.0483 93.7601 86.3091L100.084 79.9848L101.306 81.2066ZM99.8026 94.4333C99.5311 94.5238 99.2558 94.5578 98.9767 94.5352C98.7052 94.5201 98.4374 94.4635 98.1734 94.3655C97.9094 94.2674 97.6568 94.1354 97.4154 93.9695C97.1816 93.8111 96.9704 93.6376 96.7818 93.449C96.45 93.1172 96.2086 92.7853 96.0578 92.4534C95.9069 92.1216 95.8239 91.7972 95.8089 91.4805C95.7938 91.1637 95.839 90.8695 95.9446 90.598C96.0653 90.3265 96.2312 90.0851 96.4424 89.8739C96.6989 89.6175 96.9817 89.4251 97.2909 89.2969C97.6002 89.1687 97.9245 89.1083 98.2639 89.1159C98.6033 89.1234 98.9503 89.2139 99.3048 89.3874C99.6668 89.5534 100.025 89.8136 100.38 90.1681C100.644 90.4321 100.892 90.7338 101.126 91.0732C101.36 91.4126 101.53 91.7708 101.635 92.148L102.314 91.4691C102.541 91.2429 102.657 90.9977 102.665 90.7338C102.68 90.4773 102.62 90.2209 102.484 89.9644C102.363 89.708 102.182 89.4591 101.941 89.2177C101.715 88.9764 101.469 88.7539 101.205 88.5502C100.949 88.3541 100.689 88.1844 100.425 88.0411C100.176 87.8978 99.9685 87.796 99.8026 87.7356L100.504 86.6495C100.926 86.7853 101.341 86.9965 101.749 87.2831C102.163 87.5772 102.552 87.9053 102.914 88.2674C103.246 88.5992 103.532 88.9462 103.774 89.3082C104.015 89.6703 104.173 90.0398 104.249 90.417C104.339 90.7941 104.328 91.175 104.215 91.5597C104.102 91.9443 103.857 92.3252 103.48 92.7023L101.33 94.8519C101.202 94.9802 101.089 95.0933 100.991 95.1914C100.9 95.2969 100.836 95.3988 100.798 95.4968C100.776 95.5949 100.787 95.6967 100.832 95.8023C100.877 95.9079 100.983 96.0286 101.149 96.1643L100.436 96.9223C100.172 96.7489 99.9421 96.5716 99.746 96.3906C99.5499 96.2247 99.4104 96.0399 99.3274 95.8362C99.252 95.6401 99.2444 95.4289 99.3048 95.2027C99.3727 94.9688 99.5386 94.7124 99.8026 94.4333ZM100.843 92.9399C100.791 92.7212 100.659 92.4383 100.447 92.0914C100.236 91.7444 99.9949 91.4352 99.7234 91.1637C99.4292 90.8695 99.0974 90.696 98.7278 90.6432C98.3582 90.5904 98.0263 90.7111 97.7322 91.0053C97.4908 91.2466 97.3852 91.5106 97.4154 91.7972C97.4456 92.0839 97.6341 92.4006 97.9811 92.7476C98.1395 92.906 98.3243 93.0455 98.5355 93.1662C98.7542 93.2944 98.9842 93.3812 99.2256 93.4264C99.4745 93.4641 99.7309 93.449 99.9949 93.3812C100.274 93.3133 100.557 93.1662 100.843 92.9399ZM107.765 94.9292C107.969 94.8311 108.184 94.7821 108.41 94.7821C108.637 94.7821 108.859 94.8161 109.078 94.8839C109.297 94.9518 109.508 95.0499 109.711 95.1781C109.923 95.3139 110.111 95.4647 110.277 95.6306C110.511 95.8494 110.703 96.102 110.854 96.3887C111.005 96.6753 111.103 96.9694 111.148 97.2711L109.779 98.0291C109.666 97.4785 109.414 97.0071 109.021 96.6149C108.84 96.4339 108.637 96.2831 108.41 96.1624C108.192 96.0492 107.965 95.9814 107.732 95.9587C107.498 95.9361 107.26 95.9701 107.019 96.0606C106.785 96.1435 106.559 96.2944 106.34 96.5131L103.195 99.6583L101.973 98.4364L105.921 94.488C106.042 94.3673 106.144 94.2579 106.227 94.1599C106.31 94.0618 106.363 93.9638 106.385 93.8657C106.415 93.7752 106.4 93.6771 106.34 93.5715C106.287 93.4584 106.185 93.334 106.034 93.1982L106.86 92.3497C107.109 92.5081 107.332 92.6853 107.528 92.8814C107.732 93.0851 107.882 93.2962 107.98 93.515C108.086 93.7413 108.124 93.9751 108.094 94.2164C108.079 94.4578 107.969 94.6954 107.765 94.9292Z" fill="white"/>
</svg>
