<svg width="15" height="15" viewBox="0 0 15 15" fill="none" xmlns="http://www.w3.org/2000/svg">
<path fill-rule="evenodd" clip-rule="evenodd" d="M7.9543 0.295909L9.8791 4.38246C9.94984 4.53682 10.0929 4.64574 10.2605 4.67284L14.5645 5.32815C14.7591 5.36588 14.9172 5.50756 14.9759 5.69687C15.0346 5.88617 14.9844 6.09242 14.8453 6.23361L11.7309 9.41454C11.6107 9.53923 11.5566 9.71354 11.5852 9.8844L12.3204 14.376C12.3605 14.569 12.2862 14.768 12.1293 14.8874C11.9724 15.0069 11.7608 15.0256 11.5853 14.9355L7.73574 12.8149C7.58909 12.7336 7.4109 12.7336 7.26425 12.8149L3.41465 14.9355C3.23921 15.0256 3.02764 15.0069 2.87073 14.8874C2.71382 14.768 2.63946 14.569 2.67957 14.376L3.41478 9.8844C3.44339 9.71354 3.38933 9.53923 3.26908 9.41454L0.154689 6.23361C0.0156065 6.09242 -0.0345553 5.88618 0.0241455 5.69688C0.0828464 5.50758 0.240897 5.3659 0.435464 5.32817L4.73944 4.67285C4.90707 4.64574 5.05014 4.53682 5.12089 4.38246L7.04569 0.295909C7.12519 0.116032 7.30333 0 7.49999 0C7.69665 0 7.8748 0.116032 7.9543 0.295909Z" fill="white"/>
</svg>
