<svg width="360" height="858" viewBox="0 0 360 858" fill="none" xmlns="http://www.w3.org/2000/svg">
<g clip-path="url(#clip0_6918_36347)">
<rect width="360" height="858" fill="#FEF9D9"/>
<path d="M514.295 599.142C477.773 617.815 435.431 632.383 386.243 640.479C237.974 664.906 148.925 697.568 98.6184 745.247C50.1805 791.147 37.6201 851.092 42.6067 931.099L41.8885 931.49C36.8937 851.231 49.5602 791.049 98.3409 744.823C148.852 696.956 238.072 664.188 386.545 639.737C435.635 631.649 477.887 617.113 514.328 598.473L514.295 599.142ZM514.54 592.588C475.455 614.249 429.335 631.151 374.817 640.137C226.548 664.564 137.499 697.226 87.1925 744.904C37.4814 792.012 25.5657 853.9 31.6133 937.097L30.8951 937.489C24.8312 854.047 36.8611 791.914 86.9231 744.48C137.434 696.613 226.655 663.845 375.127 639.394C429.547 630.433 475.577 613.547 514.573 591.927L514.54 592.588ZM514.817 585.496C473.333 610.38 423.459 629.886 363.407 639.777C215.139 664.204 126.09 696.866 75.7828 744.545C25.5494 792.143 13.903 854.839 20.3914 939.35L20.6689 943.047L19.9507 943.439L19.6732 939.799C13.1604 855.01 24.9046 792.053 75.4972 744.113C126.008 696.246 215.229 663.478 363.701 639.027C423.655 629.151 473.439 609.67 514.842 584.819L514.817 585.496ZM515.111 577.832C471.391 606.193 417.803 628.588 351.989 639.435C203.721 663.862 114.672 696.524 64.365 744.203C14.1316 791.8 2.48524 854.496 8.97356 939.015C9.23473 942.427 9.48776 945.757 9.71628 949.037L8.99806 949.429C8.76138 946.173 8.51653 942.859 8.25536 939.472C1.74255 854.684 13.4868 791.726 64.0794 743.786C114.59 695.92 203.811 663.152 352.283 638.7C418.007 627.87 471.497 605.5 515.136 577.163L515.111 577.832ZM515.43 569.573C469.66 601.664 412.4 627.25 340.571 639.084C192.303 663.511 103.254 696.173 52.9472 743.852C2.71378 791.449 -8.93256 854.145 -2.44423 938.656C-2.01167 944.296 -1.61176 949.731 -1.26082 955.012L-1.97903 955.403C-2.33813 950.147 -2.72989 944.728 -3.16245 939.113C-9.67525 854.324 2.06903 791.367 52.6616 743.427C103.173 695.561 192.393 662.793 340.865 638.341C412.604 626.523 469.775 600.954 515.446 568.887L515.43 569.573ZM515.772 560.653C468.167 596.734 407.266 625.87 329.154 638.733C180.885 663.16 91.8445 695.822 41.5294 743.501C-8.70403 791.098 -20.3503 853.794 -13.862 938.313C-13.2499 946.246 -12.7113 953.796 -12.2624 961.01L-12.9806 961.402C-13.4295 954.204 -13.9681 946.671 -14.5802 938.762C-21.093 853.973 -9.34875 791.016 41.2438 743.076C91.7547 695.21 180.975 662.442 329.447 637.99C407.479 625.136 468.281 596.016 515.789 559.951L515.772 560.653ZM516.148 551.014C466.926 591.348 402.451 624.426 317.744 638.382C169.476 662.809 80.4267 695.471 30.1198 743.15C-20.1136 790.747 -31.76 853.443 -25.2717 937.962C-24.48 948.262 -23.8026 957.917 -23.2966 967.033L-24.0148 967.425C-24.5208 958.333 -25.1982 948.695 -25.9899 938.419C-32.5027 853.631 -20.7584 790.674 29.8341 742.734C80.345 694.867 169.566 662.099 318.038 637.647C402.68 623.708 467.049 590.621 516.172 550.304L516.148 551.014ZM516.548 540.584C465.963 585.439 397.995 622.932 306.326 638.031C158.058 662.458 69.0089 695.12 18.702 742.799C-31.5314 790.396 -43.1778 853.092 -36.6895 937.612C-35.7101 950.351 -34.9021 962.12 -34.3716 973.073L-35.0899 973.465C-35.6122 962.536 -36.4202 950.784 -37.3995 938.069C-43.9123 853.28 -32.1681 790.323 18.4245 742.383C68.9354 694.516 158.156 661.748 306.628 637.296C398.232 622.206 466.102 584.696 516.58 539.857L516.548 540.584ZM516.98 529.296C465.302 578.926 393.939 621.373 294.908 637.688C146.64 662.115 57.591 694.777 7.28415 742.456C-42.9493 790.053 -54.5956 852.749 -48.1073 937.261C-46.9321 952.531 -46.0098 966.405 -45.5201 979.145L-46.2383 979.537C-46.728 966.821 -47.6503 952.963 -48.8255 937.718C-55.3383 852.929 -43.594 789.972 6.99852 742.032C57.5094 694.165 146.73 661.397 295.202 636.945C394.184 620.639 465.449 578.167 517.005 528.546L516.98 529.296ZM517.454 517.054C465 571.703 390.348 619.733 283.491 637.329C135.222 661.756 46.1732 694.418 -4.13365 742.097C-54.3671 789.694 -66.0134 852.39 -59.5251 936.901C-58.154 954.791 -57.1093 970.779 -56.7176 985.241L-57.4358 985.633C-57.8275 971.196 -58.864 955.232 -60.2351 937.359C-66.7479 852.57 -55.0037 789.613 -4.41112 741.673C46.0998 693.806 135.32 661.038 283.793 636.586C390.617 618.99 465.163 570.92 517.478 516.271L517.454 517.054ZM517.968 503.751C465.09 563.64 387.304 618.003 272.081 636.978C123.813 661.405 34.7636 694.067 -15.5433 741.746C-65.7767 789.343 -77.423 852.039 -70.9347 936.559C-69.3514 957.174 -68.217 975.26 -67.9966 991.395L-68.7148 991.787C-68.927 975.676 -70.0696 957.607 -71.6448 937.008C-78.1576 852.219 -66.4133 789.262 -15.8208 741.322C34.6901 693.455 123.911 660.687 272.383 636.235C387.597 617.26 465.27 562.824 518 502.927L517.968 503.751ZM518.523 489.248C465.629 554.564 384.912 616.166 260.663 636.635C112.395 661.062 23.3458 693.724 -26.9611 741.403C-77.1945 789.001 -88.8408 851.696 -82.3525 936.208C-80.5489 959.655 -79.3247 979.839 -79.3818 997.598L-80.1 997.99C-80.0429 980.255 -81.2671 960.096 -83.0707 936.657C-89.5835 851.868 -77.8393 788.911 -27.2467 740.971C23.2642 693.104 112.485 660.336 260.957 635.884C385.222 615.416 465.824 553.707 518.555 488.383L518.523 489.248ZM519.135 473.35C466.706 544.207 383.321 614.191 249.245 636.276C100.977 660.703 11.928 693.365 -38.3789 741.044C-88.6123 788.641 -100.259 851.337 -93.7704 935.857C-91.7382 962.267 -90.4405 984.54 -90.8812 1003.87L-91.6076 1004.26C-91.1669 984.956 -92.4645 962.716 -94.4885 936.306C-101.001 851.517 -89.2571 788.56 -38.6646 740.62C11.8464 692.753 101.067 659.985 249.539 635.533C383.664 613.441 466.918 543.301 519.167 472.436L519.135 473.35ZM519.812 455.885C468.412 532.275 382.709 612.069 237.836 635.933C89.5593 660.36 0.518341 693.022 -49.7967 740.701C-100.03 788.299 -111.676 850.995 -105.188 935.506C-102.919 965.026 -101.564 989.371 -102.528 1010.22L-103.254 1010.62C-102.283 989.804 -103.638 965.483 -105.906 935.963C-112.419 851.174 -100.675 788.217 -50.0823 740.277C0.428589 692.41 89.6491 659.642 238.121 635.191C383.109 611.31 468.648 531.288 519.837 454.889L519.812 455.885ZM520.555 436.501C470.885 518.205 383.394 609.719 226.41 635.582C78.1415 660.01 -10.9076 692.671 -61.2145 740.35C-111.448 787.948 -123.094 850.644 -116.606 935.163C-114.092 967.947 -112.688 994.358 -114.345 1016.67L-115.08 1017.07C-113.407 994.798 -114.802 968.413 -117.316 935.62C-123.829 850.831 -112.085 787.874 -61.492 739.934C-10.981 692.068 78.2394 659.299 226.712 634.848C383.86 608.96 471.17 517.128 520.596 435.44L520.555 436.501ZM521.387 414.882C474.32 501.254 385.777 607.099 215 635.232C66.7319 659.659 -22.3172 692.321 -72.6241 739.999C-122.858 787.597 -134.504 850.293 -128.016 934.804C-125.233 971.041 -123.821 999.491 -126.391 1023.22L-127.126 1023.62C-124.531 999.932 -125.943 971.514 -128.726 935.253C-135.238 850.464 -123.494 787.507 -72.9016 739.567C-22.3907 691.7 66.8298 658.932 215.302 634.481C386.349 606.307 474.663 499.997 521.436 413.682L521.387 414.882ZM522.334 390.463C479.03 480.042 390.634 604.071 203.582 634.881C55.3141 659.308 -33.735 691.97 -84.0419 739.648C-134.275 787.246 -145.922 849.942 -139.433 934.461C-136.365 974.37 -134.961 1004.83 -138.715 1029.95L-139.466 1030.36C-135.687 1005.29 -137.083 974.852 -140.152 934.91C-146.664 850.121 -134.92 787.164 -84.3276 739.224C-33.8167 691.358 55.4038 658.589 203.876 634.138C391.352 603.255 479.446 478.508 522.375 389.116L522.334 390.463ZM523.411 362.526C485.526 451.886 399.374 600.399 192.173 634.53C43.9043 658.957 -45.1447 691.619 -95.4516 739.298C-145.685 786.895 -157.331 849.591 -150.843 934.11C-147.481 977.937 -146.109 1010.37 -151.374 1036.85L-152.141 1037.27C-146.828 1010.84 -148.191 978.435 -151.561 934.559C-158.074 849.77 -146.33 786.813 -95.7372 738.873C-45.2263 691.007 43.9941 658.239 192.466 633.787C400.37 599.542 486.057 449.853 523.469 360.959L523.411 362.526ZM-165.297 1044.44C-158.001 1016.67 -159.282 982.336 -162.979 934.208C-169.492 849.419 -157.748 786.462 -107.155 738.522C-56.6441 690.656 32.5763 657.888 181.049 633.436C396.159 597.999 480.442 438.982 515.772 351.59C519.184 343.151 522.138 335.382 524.717 328.444L524.644 330.272C522.244 336.704 519.518 343.812 516.417 351.484C480.972 439.146 396.444 598.66 180.747 634.187C32.4784 658.614 -56.5707 691.276 -106.878 738.955C-157.111 786.552 -168.757 849.248 -162.269 933.759C-158.58 981.822 -157.291 1016.18 -164.522 1044.02L-165.297 1044.44Z" fill="#DADBDA"/>
<mask id="mask0_6918_36347" style="mask-type:luminance" maskUnits="userSpaceOnUse" x="-166" y="328" width="691" height="717">
<path d="M514.295 599.142C477.773 617.815 435.431 632.383 386.243 640.479C237.974 664.906 148.925 697.568 98.6184 745.247C50.1805 791.147 37.6201 851.092 42.6067 931.099L41.8885 931.49C36.8937 851.231 49.5602 791.049 98.3409 744.823C148.852 696.956 238.072 664.188 386.545 639.737C435.635 631.649 477.887 617.113 514.328 598.473L514.295 599.142ZM514.54 592.588C475.455 614.249 429.335 631.151 374.817 640.137C226.548 664.564 137.499 697.226 87.1925 744.904C37.4814 792.012 25.5657 853.9 31.6133 937.097L30.8951 937.489C24.8312 854.047 36.8611 791.914 86.9231 744.48C137.434 696.613 226.655 663.845 375.127 639.394C429.547 630.433 475.577 613.547 514.573 591.927L514.54 592.588ZM514.817 585.496C473.333 610.38 423.459 629.886 363.407 639.777C215.139 664.204 126.09 696.866 75.7828 744.545C25.5494 792.143 13.903 854.839 20.3914 939.35L20.6689 943.047L19.9507 943.439L19.6732 939.799C13.1604 855.01 24.9046 792.053 75.4972 744.113C126.008 696.246 215.229 663.478 363.701 639.027C423.655 629.151 473.439 609.67 514.842 584.819L514.817 585.496ZM515.111 577.832C471.391 606.193 417.803 628.588 351.989 639.435C203.721 663.862 114.672 696.524 64.365 744.203C14.1316 791.8 2.48524 854.496 8.97356 939.015C9.23473 942.427 9.48776 945.757 9.71628 949.037L8.99806 949.429C8.76138 946.173 8.51653 942.859 8.25536 939.472C1.74255 854.684 13.4868 791.726 64.0794 743.786C114.59 695.92 203.811 663.152 352.283 638.7C418.007 627.87 471.497 605.5 515.136 577.163L515.111 577.832ZM515.43 569.573C469.66 601.664 412.4 627.25 340.571 639.084C192.303 663.511 103.254 696.173 52.9472 743.852C2.71378 791.449 -8.93256 854.145 -2.44423 938.656C-2.01167 944.296 -1.61176 949.731 -1.26082 955.012L-1.97903 955.403C-2.33813 950.147 -2.72989 944.728 -3.16245 939.113C-9.67525 854.324 2.06903 791.367 52.6616 743.427C103.173 695.561 192.393 662.793 340.865 638.341C412.604 626.523 469.775 600.954 515.446 568.887L515.43 569.573ZM515.772 560.653C468.167 596.734 407.266 625.87 329.154 638.733C180.885 663.16 91.8445 695.822 41.5294 743.501C-8.70403 791.098 -20.3503 853.794 -13.862 938.313C-13.2499 946.246 -12.7113 953.796 -12.2624 961.01L-12.9806 961.402C-13.4295 954.204 -13.9681 946.671 -14.5802 938.762C-21.093 853.973 -9.34875 791.016 41.2438 743.076C91.7547 695.21 180.975 662.442 329.447 637.99C407.479 625.136 468.281 596.016 515.789 559.951L515.772 560.653ZM516.148 551.014C466.926 591.348 402.451 624.426 317.744 638.382C169.476 662.809 80.4267 695.471 30.1198 743.15C-20.1136 790.747 -31.76 853.443 -25.2717 937.962C-24.48 948.262 -23.8026 957.917 -23.2966 967.033L-24.0148 967.425C-24.5208 958.333 -25.1982 948.695 -25.9899 938.419C-32.5027 853.631 -20.7584 790.674 29.8341 742.734C80.345 694.867 169.566 662.099 318.038 637.647C402.68 623.708 467.049 590.621 516.172 550.304L516.148 551.014ZM516.548 540.584C465.963 585.439 397.995 622.932 306.326 638.031C158.058 662.458 69.0089 695.12 18.702 742.799C-31.5314 790.396 -43.1778 853.092 -36.6895 937.612C-35.7101 950.351 -34.9021 962.12 -34.3716 973.073L-35.0899 973.465C-35.6122 962.536 -36.4202 950.784 -37.3995 938.069C-43.9123 853.28 -32.1681 790.323 18.4245 742.383C68.9354 694.516 158.156 661.748 306.628 637.296C398.232 622.206 466.102 584.696 516.58 539.857L516.548 540.584ZM516.98 529.296C465.302 578.926 393.939 621.373 294.908 637.688C146.64 662.115 57.591 694.777 7.28415 742.456C-42.9493 790.053 -54.5956 852.749 -48.1073 937.261C-46.9321 952.531 -46.0098 966.405 -45.5201 979.145L-46.2383 979.537C-46.728 966.821 -47.6503 952.963 -48.8255 937.718C-55.3383 852.929 -43.594 789.972 6.99852 742.032C57.5094 694.165 146.73 661.397 295.202 636.945C394.184 620.639 465.449 578.167 517.005 528.546L516.98 529.296ZM517.454 517.054C465 571.703 390.348 619.733 283.491 637.329C135.222 661.756 46.1732 694.418 -4.13365 742.097C-54.3671 789.694 -66.0134 852.39 -59.5251 936.901C-58.154 954.791 -57.1093 970.779 -56.7176 985.241L-57.4358 985.633C-57.8275 971.196 -58.864 955.232 -60.2351 937.359C-66.7479 852.57 -55.0037 789.613 -4.41112 741.673C46.0998 693.806 135.32 661.038 283.793 636.586C390.617 618.99 465.163 570.92 517.478 516.271L517.454 517.054ZM517.968 503.751C465.09 563.64 387.304 618.003 272.081 636.978C123.813 661.405 34.7636 694.067 -15.5433 741.746C-65.7767 789.343 -77.423 852.039 -70.9347 936.559C-69.3514 957.174 -68.217 975.26 -67.9966 991.395L-68.7148 991.787C-68.927 975.676 -70.0696 957.607 -71.6448 937.008C-78.1576 852.219 -66.4133 789.262 -15.8208 741.322C34.6901 693.455 123.911 660.687 272.383 636.235C387.597 617.26 465.27 562.824 518 502.927L517.968 503.751ZM518.523 489.248C465.629 554.564 384.912 616.166 260.663 636.635C112.395 661.062 23.3458 693.724 -26.9611 741.403C-77.1945 789.001 -88.8408 851.696 -82.3525 936.208C-80.5489 959.655 -79.3247 979.839 -79.3818 997.598L-80.1 997.99C-80.0429 980.255 -81.2671 960.096 -83.0707 936.657C-89.5835 851.868 -77.8393 788.911 -27.2467 740.971C23.2642 693.104 112.485 660.336 260.957 635.884C385.222 615.416 465.824 553.707 518.555 488.383L518.523 489.248ZM519.135 473.35C466.706 544.207 383.321 614.191 249.245 636.276C100.977 660.703 11.928 693.365 -38.3789 741.044C-88.6123 788.641 -100.259 851.337 -93.7704 935.857C-91.7382 962.267 -90.4405 984.54 -90.8812 1003.87L-91.6076 1004.26C-91.1669 984.956 -92.4645 962.716 -94.4885 936.306C-101.001 851.517 -89.2571 788.56 -38.6646 740.62C11.8464 692.753 101.067 659.985 249.539 635.533C383.664 613.441 466.918 543.301 519.167 472.436L519.135 473.35ZM519.812 455.885C468.412 532.275 382.709 612.069 237.836 635.933C89.5593 660.36 0.518341 693.022 -49.7967 740.701C-100.03 788.299 -111.676 850.995 -105.188 935.506C-102.919 965.026 -101.564 989.371 -102.528 1010.22L-103.254 1010.62C-102.283 989.804 -103.638 965.483 -105.906 935.963C-112.419 851.174 -100.675 788.217 -50.0823 740.277C0.428589 692.41 89.6491 659.642 238.121 635.191C383.109 611.31 468.648 531.288 519.837 454.889L519.812 455.885ZM520.555 436.501C470.885 518.205 383.394 609.719 226.41 635.582C78.1415 660.01 -10.9076 692.671 -61.2145 740.35C-111.448 787.948 -123.094 850.644 -116.606 935.163C-114.092 967.947 -112.688 994.358 -114.345 1016.67L-115.08 1017.07C-113.407 994.798 -114.802 968.413 -117.316 935.62C-123.829 850.831 -112.085 787.874 -61.492 739.934C-10.981 692.068 78.2394 659.299 226.712 634.848C383.86 608.96 471.17 517.128 520.596 435.44L520.555 436.501ZM521.387 414.882C474.32 501.254 385.777 607.099 215 635.232C66.7319 659.659 -22.3172 692.321 -72.6241 739.999C-122.858 787.597 -134.504 850.293 -128.016 934.804C-125.233 971.041 -123.821 999.491 -126.391 1023.22L-127.126 1023.62C-124.531 999.932 -125.943 971.514 -128.726 935.253C-135.238 850.464 -123.494 787.507 -72.9016 739.567C-22.3907 691.7 66.8298 658.932 215.302 634.481C386.349 606.307 474.663 499.997 521.436 413.682L521.387 414.882ZM522.334 390.463C479.03 480.042 390.634 604.071 203.582 634.881C55.3141 659.308 -33.735 691.97 -84.0419 739.648C-134.275 787.246 -145.922 849.942 -139.433 934.461C-136.365 974.37 -134.961 1004.83 -138.715 1029.95L-139.466 1030.36C-135.687 1005.29 -137.083 974.852 -140.152 934.91C-146.664 850.121 -134.92 787.164 -84.3276 739.224C-33.8167 691.358 55.4038 658.589 203.876 634.138C391.352 603.255 479.446 478.508 522.375 389.116L522.334 390.463ZM523.411 362.526C485.526 451.886 399.374 600.399 192.173 634.53C43.9043 658.957 -45.1447 691.619 -95.4516 739.298C-145.685 786.895 -157.331 849.591 -150.843 934.11C-147.481 977.937 -146.109 1010.37 -151.374 1036.85L-152.141 1037.27C-146.828 1010.84 -148.191 978.435 -151.561 934.559C-158.074 849.77 -146.33 786.813 -95.7372 738.873C-45.2263 691.007 43.9941 658.239 192.466 633.787C400.37 599.542 486.057 449.853 523.469 360.959L523.411 362.526ZM-165.297 1044.44C-158.001 1016.67 -159.282 982.336 -162.979 934.208C-169.492 849.419 -157.748 786.462 -107.155 738.522C-56.6441 690.656 32.5763 657.888 181.049 633.436C396.159 597.999 480.442 438.982 515.772 351.59C519.184 343.151 522.138 335.382 524.717 328.444L524.644 330.272C522.244 336.704 519.518 343.812 516.417 351.484C480.972 439.146 396.444 598.66 180.747 634.187C32.4784 658.614 -56.5707 691.276 -106.878 738.955C-157.111 786.552 -168.757 849.248 -162.269 933.759C-158.58 981.822 -157.291 1016.18 -164.522 1044.02L-165.297 1044.44Z" fill="white"/>
</mask>
<g mask="url(#mask0_6918_36347)">
<path d="M511.352 675.551L-177.25 1050.97L-163.882 703.847L524.721 328.438L511.352 675.551Z" fill="#DADBDA"/>
</g>
<path d="M98.48 7.27C98.48 51.12 78.97 85.8 31.66 85.8C-15.65 85.8 -54 50.25 -54 6.4C-54 -37.45 -15.65 -73 31.66 -73C78.97 -73 98.48 -36.59 98.48 7.27Z" fill="#FCD801"/>
<path d="M52.3919 94.23C52.3919 104.33 47.7219 112.32 36.4119 112.32C25.1019 112.32 15.9219 104.13 15.9219 94.03C15.9219 83.93 25.0919 75.74 36.4119 75.74C47.7319 75.74 52.3919 84.13 52.3919 94.23Z" fill="#0D9ECD"/>
<path d="M-36.6553 -371.722C-6.09582 -349.971 22.1872 -320.459 46.1404 -280.839C118.369 -161.403 179.897 -100.583 244.13 -83.9117C305.972 -67.8652 370.454 -92.82 449.545 -145.806L450.17 -145.389C370.832 -92.2388 306.069 -67.2434 243.797 -83.3991C179.312 -100.134 117.626 -161.059 45.3027 -280.653C21.3897 -320.193 -6.8352 -349.649 -37.3286 -371.338L-36.6553 -371.722ZM-43.3439 -367.98C-8.95933 -345.719 22.9017 -314.196 49.4554 -270.287C121.684 -150.851 183.212 -90.0321 247.445 -73.3603C310.906 -56.891 377.149 -83.6014 459.113 -139.483L459.738 -139.066C377.532 -83.0282 311.011 -56.2632 247.104 -72.8537C182.619 -89.5889 120.933 -150.514 48.6098 -270.108C22.1023 -313.945 -9.70465 -345.389 -44.0251 -367.603L-43.3439 -367.98ZM-50.5798 -363.924C-12.1688 -341.438 23.5199 -308.106 52.7705 -259.736C124.999 -140.3 186.527 -79.4807 250.76 -62.809C314.89 -46.165 381.855 -73.6088 465.003 -130.691L468.642 -133.19L469.267 -132.773L465.686 -130.318C382.264 -73.0536 315.009 -45.5392 250.419 -62.3023C185.934 -79.0375 124.248 -139.962 51.9169 -259.562C22.7124 -307.86 -12.9161 -341.123 -51.269 -363.552L-50.5798 -363.924ZM-58.405 -359.546C-15.7622 -337.145 24.0177 -302.205 56.0856 -249.185C128.314 -129.749 189.842 -68.9293 254.075 -52.2575C318.205 -35.6136 385.17 -63.0574 468.318 -120.14C471.672 -122.44 474.961 -124.689 478.187 -126.885L478.811 -126.469C475.606 -124.282 472.342 -122.052 469.009 -119.761C385.587 -62.4962 318.332 -34.9819 253.742 -51.7449C189.241 -68.4921 127.555 -129.417 55.232 -249.011C23.2182 -301.953 -16.5236 -336.828 -59.1003 -359.167L-58.405 -359.546ZM-66.8396 -354.837C-19.7836 -332.847 24.4071 -296.509 59.3987 -238.647C131.627 -119.211 193.155 -58.3919 257.388 -41.7201C321.518 -25.0762 388.483 -52.52 471.631 -109.602C477.182 -113.407 482.538 -117.07 487.745 -120.582L488.37 -120.166C483.183 -116.663 477.852 -113.019 472.322 -109.224C388.9 -51.9588 321.645 -24.4444 257.055 -41.2075C192.57 -57.9427 130.884 -118.868 58.561 -238.461C23.5936 -296.256 -20.5429 -332.516 -67.5468 -354.442L-66.8396 -354.837ZM-75.9475 -349.745C-24.277 -328.502 24.652 -291.022 62.7057 -228.102C134.934 -108.666 196.462 -47.8465 260.695 -31.1747C324.825 -14.5308 391.79 -41.9745 474.938 -99.0567C482.744 -104.41 490.183 -109.475 497.314 -114.259L497.939 -113.843C490.82 -109.074 483.4 -104.02 475.621 -98.6841C392.199 -41.4194 324.944 -13.905 260.354 -30.668C195.863 -47.3953 134.177 -108.32 61.8541 -227.914C23.8445 -290.776 -25.0443 -328.177 -76.6607 -349.342L-75.9475 -349.745ZM-85.7885 -344.239C-29.3062 -324.108 24.7464 -285.784 66.0208 -217.55C138.249 -98.1143 199.777 -37.2951 264.01 -20.6233C328.14 -3.97936 395.105 -31.4231 478.253 -88.5053C488.385 -95.4536 497.909 -101.921 506.937 -107.909L507.561 -107.492C498.559 -101.522 489.048 -95.0709 478.944 -88.1267C395.522 -30.862 328.267 -3.34762 263.677 -20.1107C199.192 -36.8459 137.506 -97.7708 65.1832 -217.365C23.9529 -285.54 -30.0736 -323.783 -86.4997 -343.822L-85.7885 -344.239ZM-96.4286 -338.282C-34.9553 -319.653 24.6763 -280.844 69.3279 -207.005C141.557 -87.5689 203.084 -26.7497 267.318 -10.0779C331.439 6.56009 398.404 -20.8837 481.56 -77.9599C494.089 -86.5629 505.704 -94.4262 516.577 -101.532L517.202 -101.115C506.348 -94.0194 494.754 -86.1663 482.245 -77.5733C398.823 -20.3086 331.56 7.19982 266.979 -9.55724C202.493 -26.2925 140.807 -87.2174 68.4843 -206.811C23.8608 -280.604 -35.7507 -319.323 -97.1738 -337.853L-96.4286 -338.282ZM-107.962 -331.831C-41.3282 -315.114 24.3955 -276.223 72.637 -196.445C144.866 -77.0095 206.393 -16.1903 270.627 0.481511C334.756 17.1255 401.721 -10.3183 484.869 -67.4005C499.887 -77.7145 513.594 -86.9599 526.28 -95.1212L526.905 -94.7045C514.245 -86.5612 500.566 -77.3198 485.56 -67.0219C402.138 -9.75715 334.883 17.7572 270.294 0.994164C205.808 -15.7411 144.122 -76.666 71.7993 -196.26C23.586 -275.992 -42.1296 -314.777 -108.719 -331.386L-107.962 -331.831ZM-120.454 -324.848C-48.507 -310.466 23.896 -271.978 75.95 -185.908C148.179 -66.4721 209.706 -5.65286 273.94 11.0189C338.069 27.6629 405.034 0.219088 488.183 -56.8631C505.78 -68.9442 521.567 -79.5698 536.029 -88.6887L536.654 -88.2719C522.218 -79.1711 506.451 -68.5556 488.865 -56.4905C405.443 0.774253 338.188 28.2886 273.599 11.5256C209.113 -5.20965 147.427 -66.1346 75.1044 -185.728C23.0684 -271.773 -49.3383 -310.138 -121.247 -324.405L-120.454 -324.848ZM-134.029 -317.251C-56.6634 -305.661 23.1316 -268.181 79.2651 -175.357C151.494 -55.9207 213.021 4.89854 277.255 21.5703C341.384 38.2143 408.349 10.7705 491.498 -46.3117C511.78 -60.2322 529.656 -72.2179 545.858 -82.1963L546.483 -81.7796C530.299 -71.8252 512.451 -59.8436 492.18 -45.939C408.759 11.3257 341.503 38.84 276.914 22.077C212.428 5.34175 150.742 -55.5831 78.4195 -175.177C22.288 -267.987 -57.5507 -305.326 -134.876 -316.785L-134.029 -317.251ZM-148.84 -308.967C-65.9974 -300.651 22.0421 -264.901 82.5722 -164.811C154.801 -45.3753 216.328 15.444 280.554 32.1097C344.683 48.7537 411.648 21.3099 494.797 -35.7722C517.873 -51.6124 537.832 -64.9503 555.757 -75.6641L556.382 -75.2473C538.483 -64.5515 518.542 -51.2377 495.479 -35.3996C412.058 21.8651 344.802 49.3795 280.213 32.6164C215.735 15.8871 154.049 -45.0377 81.7265 -164.632C21.1885 -264.727 -66.9207 -300.317 -149.719 -308.476L-148.84 -308.967ZM-165.066 -299.893C-76.7769 -295.359 20.5734 -262.266 85.8792 -154.266C158.108 -34.8298 219.635 25.9894 283.869 42.6611C347.998 59.3051 414.964 31.8613 498.112 -25.2208C524.092 -43.0608 546.145 -57.7308 565.776 -69.0421L566.401 -68.6253C546.796 -57.3321 524.783 -42.6822 498.794 -24.8482C415.373 32.4165 348.117 59.9309 283.528 43.1678C219.042 26.4326 157.357 -34.4923 85.0336 -154.086C19.6997 -262.132 -77.7622 -295.009 -166.005 -299.371L-165.066 -299.893ZM-182.898 -289.921C-89.3635 -289.67 18.6191 -260.418 89.1943 -143.714C161.423 -24.2785 222.951 36.5408 287.184 53.2125C351.313 69.8565 418.279 42.4127 501.427 -14.6694C530.469 -34.6035 554.589 -50.5877 575.914 -62.3443L576.547 -61.9216C555.246 -50.197 531.152 -34.2309 502.104 -14.2888C418.682 42.9759 351.427 70.4903 286.837 53.7272C222.351 36.992 160.666 -23.933 88.3426 -143.527C17.7193 -260.316 -90.4427 -289.278 -183.921 -289.337L-182.898 -289.921ZM-202.686 -278.852C-104.343 -283.384 16.0407 -259.623 92.5073 -133.177C164.736 -13.741 226.264 47.0782 290.497 63.7499C354.618 80.3879 421.592 52.9501 504.74 -4.13205C536.992 -26.2745 563.177 -43.5368 586.207 -55.5548L586.84 -55.1321C563.84 -43.1541 537.68 -25.9099 505.417 -3.75139C421.995 53.5133 354.732 81.0217 290.15 64.2646C225.665 47.5294 163.979 -13.3955 91.6557 -132.989C15.1048 -259.573 -105.542 -282.982 -203.783 -278.236L-202.686 -278.852ZM-224.762 -266.508C-122.541 -276.232 12.6215 -260.192 95.8224 -122.626C168.051 -3.18966 229.579 57.6296 293.812 74.3013C357.941 90.9453 424.907 63.5015 508.055 6.41935C543.706 -18.0519 571.939 -36.5683 596.707 -48.6238L597.348 -48.1951C572.616 -36.1877 544.409 -17.6893 508.74 6.80599C425.318 64.0707 358.063 91.5851 293.473 74.822C228.988 58.0868 167.302 -2.83817 94.9788 -122.432C11.6615 -260.21 -123.902 -275.763 -225.962 -265.819L-224.762 -266.508ZM-249.678 -252.566C-145.446 -267.64 8.0144 -262.747 99.1295 -112.08C171.358 7.35577 232.886 68.175 297.119 84.8468C361.249 101.491 428.214 74.0469 511.362 16.9648C550.626 -9.98769 580.885 -29.7122 607.429 -41.5392L608.084 -41.1125C581.582 -29.3416 551.341 -9.64113 512.045 17.3374C428.623 74.6021 361.368 102.116 296.778 85.3535C232.293 68.6182 170.607 7.69325 98.2838 -111.901C6.95406 -262.914 -147.131 -267.089 -251.066 -251.793L-249.678 -252.566ZM-278.204 -236.615C-175.927 -256.457 1.50897 -268.442 102.445 -101.529C174.673 17.9072 236.201 78.7264 300.434 95.3982C364.564 112.042 431.529 84.5983 514.677 27.5162C557.794 -2.08799 590.07 -22.9765 618.466 -34.2572L619.137 -33.8186C590.773 -22.6139 558.529 -1.75146 515.366 27.8808C431.944 85.1455 364.689 112.66 300.099 95.8968C235.614 79.1616 173.928 18.2367 101.605 -101.357C0.330247 -268.835 -178.136 -255.723 -279.79 -235.728L-278.204 -236.615ZM630.586 -26.2534C600.23 -16.0248 566.022 5.92959 518.667 38.4342C435.245 95.6989 367.99 123.213 303.4 106.45C238.915 89.715 177.229 28.7901 104.906 -90.8037C0.117707 -264.089 -187.311 -244.04 -286.781 -223.076C-296.383 -221.049 -305.177 -219.017 -313.001 -217.147L-311.137 -218.189C-303.885 -219.912 -295.834 -221.75 -287.106 -223.593C-187.324 -244.624 0.680393 -264.742 105.752 -90.9834C177.98 28.4526 239.508 89.2718 303.741 105.944C367.871 122.588 434.836 95.1437 517.984 38.0616C565.267 5.60309 599.508 -16.3773 629.907 -26.6981L630.586 -26.2534Z" fill="url(#paint0_linear_6918_36347)"/>
<mask id="mask1_6918_36347" style="mask-type:luminance" maskUnits="userSpaceOnUse" x="-313" y="-372" width="944" height="484">
<path d="M-36.6553 -371.722C-6.09582 -349.971 22.1872 -320.459 46.1404 -280.839C118.369 -161.403 179.897 -100.583 244.13 -83.9117C305.972 -67.8652 370.454 -92.82 449.545 -145.806L450.17 -145.389C370.832 -92.2388 306.069 -67.2434 243.797 -83.3991C179.312 -100.134 117.626 -161.059 45.3027 -280.653C21.3897 -320.193 -6.8352 -349.649 -37.3286 -371.338L-36.6553 -371.722ZM-43.3439 -367.98C-8.95933 -345.719 22.9017 -314.196 49.4554 -270.287C121.684 -150.851 183.212 -90.0321 247.445 -73.3603C310.906 -56.891 377.149 -83.6014 459.113 -139.483L459.738 -139.066C377.532 -83.0282 311.011 -56.2632 247.104 -72.8537C182.619 -89.5889 120.933 -150.514 48.6098 -270.108C22.1023 -313.945 -9.70465 -345.389 -44.0251 -367.603L-43.3439 -367.98ZM-50.5798 -363.924C-12.1688 -341.438 23.5199 -308.106 52.7705 -259.736C124.999 -140.3 186.527 -79.4807 250.76 -62.809C314.89 -46.165 381.855 -73.6088 465.003 -130.691L468.642 -133.19L469.267 -132.773L465.686 -130.318C382.264 -73.0536 315.009 -45.5392 250.419 -62.3023C185.934 -79.0375 124.248 -139.962 51.9169 -259.562C22.7124 -307.86 -12.9161 -341.123 -51.269 -363.552L-50.5798 -363.924ZM-58.405 -359.546C-15.7622 -337.145 24.0177 -302.205 56.0856 -249.185C128.314 -129.749 189.842 -68.9293 254.075 -52.2575C318.205 -35.6136 385.17 -63.0574 468.318 -120.14C471.672 -122.44 474.961 -124.689 478.187 -126.885L478.811 -126.469C475.606 -124.282 472.342 -122.052 469.009 -119.761C385.587 -62.4962 318.332 -34.9819 253.742 -51.7449C189.241 -68.4921 127.555 -129.417 55.232 -249.011C23.2182 -301.953 -16.5236 -336.828 -59.1003 -359.167L-58.405 -359.546ZM-66.8396 -354.837C-19.7836 -332.847 24.4071 -296.509 59.3987 -238.647C131.627 -119.211 193.155 -58.3919 257.388 -41.7201C321.518 -25.0762 388.483 -52.52 471.631 -109.602C477.182 -113.407 482.538 -117.07 487.745 -120.582L488.37 -120.166C483.183 -116.663 477.852 -113.019 472.322 -109.224C388.9 -51.9588 321.645 -24.4444 257.055 -41.2075C192.57 -57.9427 130.884 -118.868 58.561 -238.461C23.5936 -296.256 -20.5429 -332.516 -67.5468 -354.442L-66.8396 -354.837ZM-75.9475 -349.745C-24.277 -328.502 24.652 -291.022 62.7057 -228.102C134.934 -108.666 196.462 -47.8465 260.695 -31.1747C324.825 -14.5308 391.79 -41.9745 474.938 -99.0567C482.744 -104.41 490.183 -109.475 497.314 -114.259L497.939 -113.843C490.82 -109.074 483.4 -104.02 475.621 -98.6841C392.199 -41.4194 324.944 -13.905 260.354 -30.668C195.863 -47.3953 134.177 -108.32 61.8541 -227.914C23.8445 -290.776 -25.0443 -328.177 -76.6607 -349.342L-75.9475 -349.745ZM-85.7885 -344.239C-29.3062 -324.108 24.7464 -285.784 66.0208 -217.55C138.249 -98.1143 199.777 -37.2951 264.01 -20.6233C328.14 -3.97936 395.105 -31.4231 478.253 -88.5053C488.385 -95.4536 497.909 -101.921 506.937 -107.909L507.561 -107.492C498.559 -101.522 489.048 -95.0709 478.944 -88.1267C395.522 -30.862 328.267 -3.34762 263.677 -20.1107C199.192 -36.8459 137.506 -97.7708 65.1832 -217.365C23.9529 -285.54 -30.0736 -323.783 -86.4997 -343.822L-85.7885 -344.239ZM-96.4286 -338.282C-34.9553 -319.653 24.6763 -280.844 69.3279 -207.005C141.557 -87.5689 203.084 -26.7497 267.318 -10.0779C331.439 6.56009 398.404 -20.8837 481.56 -77.9599C494.089 -86.5629 505.704 -94.4262 516.577 -101.532L517.202 -101.115C506.348 -94.0194 494.754 -86.1663 482.245 -77.5733C398.823 -20.3086 331.56 7.19982 266.979 -9.55724C202.493 -26.2925 140.807 -87.2174 68.4843 -206.811C23.8608 -280.604 -35.7507 -319.323 -97.1738 -337.853L-96.4286 -338.282ZM-107.962 -331.831C-41.3282 -315.114 24.3955 -276.223 72.637 -196.445C144.866 -77.0095 206.393 -16.1903 270.627 0.481511C334.756 17.1255 401.721 -10.3183 484.869 -67.4005C499.887 -77.7145 513.594 -86.9599 526.28 -95.1212L526.905 -94.7045C514.245 -86.5612 500.566 -77.3198 485.56 -67.0219C402.138 -9.75715 334.883 17.7572 270.294 0.994164C205.808 -15.7411 144.122 -76.666 71.7993 -196.26C23.586 -275.992 -42.1296 -314.777 -108.719 -331.386L-107.962 -331.831ZM-120.454 -324.848C-48.507 -310.466 23.896 -271.978 75.95 -185.908C148.179 -66.4721 209.706 -5.65286 273.94 11.0189C338.069 27.6629 405.034 0.219088 488.183 -56.8631C505.78 -68.9442 521.567 -79.5698 536.029 -88.6887L536.654 -88.2719C522.218 -79.1711 506.451 -68.5556 488.865 -56.4905C405.443 0.774253 338.188 28.2886 273.599 11.5256C209.113 -5.20965 147.427 -66.1346 75.1044 -185.728C23.0684 -271.773 -49.3383 -310.138 -121.247 -324.405L-120.454 -324.848ZM-134.029 -317.251C-56.6634 -305.661 23.1316 -268.181 79.2651 -175.357C151.494 -55.9207 213.021 4.89854 277.255 21.5703C341.384 38.2143 408.349 10.7705 491.498 -46.3117C511.78 -60.2322 529.656 -72.2179 545.858 -82.1963L546.483 -81.7796C530.299 -71.8252 512.451 -59.8436 492.18 -45.939C408.759 11.3257 341.503 38.84 276.914 22.077C212.428 5.34175 150.742 -55.5831 78.4195 -175.177C22.288 -267.987 -57.5507 -305.326 -134.876 -316.785L-134.029 -317.251ZM-148.84 -308.967C-65.9974 -300.651 22.0421 -264.901 82.5722 -164.811C154.801 -45.3753 216.328 15.444 280.554 32.1097C344.683 48.7537 411.648 21.3099 494.797 -35.7722C517.873 -51.6124 537.832 -64.9503 555.757 -75.6641L556.382 -75.2473C538.483 -64.5515 518.542 -51.2377 495.479 -35.3996C412.058 21.8651 344.802 49.3795 280.213 32.6164C215.735 15.8871 154.049 -45.0377 81.7265 -164.632C21.1885 -264.727 -66.9207 -300.317 -149.719 -308.476L-148.84 -308.967ZM-165.066 -299.893C-76.7769 -295.359 20.5734 -262.266 85.8792 -154.266C158.108 -34.8298 219.635 25.9894 283.869 42.6611C347.998 59.3051 414.964 31.8613 498.112 -25.2208C524.092 -43.0608 546.145 -57.7308 565.776 -69.0421L566.401 -68.6253C546.796 -57.3321 524.783 -42.6822 498.794 -24.8482C415.373 32.4165 348.117 59.9309 283.528 43.1678C219.042 26.4326 157.357 -34.4923 85.0336 -154.086C19.6997 -262.132 -77.7622 -295.009 -166.005 -299.371L-165.066 -299.893ZM-182.898 -289.921C-89.3635 -289.67 18.6191 -260.418 89.1943 -143.714C161.423 -24.2785 222.951 36.5408 287.184 53.2125C351.313 69.8565 418.279 42.4127 501.427 -14.6694C530.469 -34.6035 554.589 -50.5877 575.914 -62.3443L576.547 -61.9216C555.246 -50.197 531.152 -34.2309 502.104 -14.2888C418.682 42.9759 351.427 70.4903 286.837 53.7272C222.351 36.992 160.666 -23.933 88.3426 -143.527C17.7193 -260.316 -90.4427 -289.278 -183.921 -289.337L-182.898 -289.921ZM-202.686 -278.852C-104.343 -283.384 16.0407 -259.623 92.5073 -133.177C164.736 -13.741 226.264 47.0782 290.497 63.7499C354.618 80.3879 421.592 52.9501 504.74 -4.13205C536.992 -26.2745 563.177 -43.5368 586.207 -55.5548L586.84 -55.1321C563.84 -43.1541 537.68 -25.9099 505.417 -3.75139C421.995 53.5133 354.732 81.0217 290.15 64.2646C225.665 47.5294 163.979 -13.3955 91.6557 -132.989C15.1048 -259.573 -105.542 -282.982 -203.783 -278.236L-202.686 -278.852ZM-224.762 -266.508C-122.541 -276.232 12.6215 -260.192 95.8224 -122.626C168.051 -3.18966 229.579 57.6296 293.812 74.3013C357.941 90.9453 424.907 63.5015 508.055 6.41935C543.706 -18.0519 571.939 -36.5683 596.707 -48.6238L597.348 -48.1951C572.616 -36.1877 544.409 -17.6893 508.74 6.80599C425.318 64.0707 358.063 91.5851 293.473 74.822C228.988 58.0868 167.302 -2.83817 94.9788 -122.432C11.6615 -260.21 -123.902 -275.763 -225.962 -265.819L-224.762 -266.508ZM-249.678 -252.566C-145.446 -267.64 8.0144 -262.747 99.1295 -112.08C171.358 7.35577 232.886 68.175 297.119 84.8468C361.249 101.491 428.214 74.0469 511.362 16.9648C550.626 -9.98769 580.885 -29.7122 607.429 -41.5392L608.084 -41.1125C581.582 -29.3416 551.341 -9.64113 512.045 17.3374C428.623 74.6021 361.368 102.116 296.778 85.3535C232.293 68.6182 170.607 7.69325 98.2838 -111.901C6.95406 -262.914 -147.131 -267.089 -251.066 -251.793L-249.678 -252.566ZM-278.204 -236.615C-175.927 -256.457 1.50897 -268.442 102.445 -101.529C174.673 17.9072 236.201 78.7264 300.434 95.3982C364.564 112.042 431.529 84.5983 514.677 27.5162C557.794 -2.08799 590.07 -22.9765 618.466 -34.2572L619.137 -33.8186C590.773 -22.6139 558.529 -1.75146 515.366 27.8808C431.944 85.1455 364.689 112.66 300.099 95.8968C235.614 79.1616 173.928 18.2367 101.605 -101.357C0.330247 -268.835 -178.136 -255.723 -279.79 -235.728L-278.204 -236.615ZM630.586 -26.2534C600.23 -16.0248 566.022 5.92959 518.667 38.4342C435.245 95.6989 367.99 123.213 303.4 106.45C238.915 89.715 177.229 28.7901 104.906 -90.8037C0.117707 -264.089 -187.311 -244.04 -286.781 -223.076C-296.383 -221.049 -305.177 -219.017 -313.001 -217.147L-311.137 -218.189C-303.885 -219.912 -295.834 -221.75 -287.106 -223.593C-187.324 -244.624 0.680393 -264.742 105.752 -90.9834C177.98 28.4526 239.508 89.2718 303.741 105.944C367.871 122.588 434.836 95.1437 517.984 38.0616C565.267 5.60309 599.508 -16.3773 629.907 -26.6981L630.586 -26.2534Z" fill="white"/>
</mask>
<g mask="url(#mask1_6918_36347)">
<path d="M41.3482 -415.347L640.992 -19.3801L286.643 178.82L-313.001 -217.147L41.3482 -415.347Z" fill="url(#paint1_linear_6918_36347)"/>
</g>
<path d="M27.47 673.934C27.47 684.034 22.8 692.024 11.49 692.024C0.17999 692.024 -9 683.834 -9 673.734C-9 663.634 0.169991 655.444 11.49 655.444C22.81 655.444 27.47 663.834 27.47 673.934Z" fill="#FCD801"/>
</g>
<defs>
<linearGradient id="paint0_linear_6918_36347" x1="-296.722" y1="-268.583" x2="615.89" y2="20.2051" gradientUnits="userSpaceOnUse">
<stop stop-color="white" stop-opacity="0"/>
<stop offset="1" stop-color="#DADBDA"/>
</linearGradient>
<linearGradient id="paint1_linear_6918_36347" x1="-298.035" y1="-264.43" x2="626.018" y2="27.9788" gradientUnits="userSpaceOnUse">
<stop stop-color="white" stop-opacity="0"/>
<stop offset="1" stop-color="#DADBDA"/>
</linearGradient>
<clipPath id="clip0_6918_36347">
<rect width="360" height="858" fill="white"/>
</clipPath>
</defs>
</svg>
