<svg width="87" height="88" viewBox="0 0 87 88" fill="none" xmlns="http://www.w3.org/2000/svg">
<path d="M0.951095 21.3053L7.9572 14.5396L14.7229 21.5457L0.951095 21.3053Z" fill="#005F8D"/>
<path d="M67.703 74.1664L74.4687 81.1725L67.4626 87.9382L67.703 74.1664Z" fill="#005F8D"/>
<path d="M15.7647 6.76165C17.5887 5.0002 20.4953 5.05094 22.2568 6.87497L81.2605 67.9751C83.0219 69.7991 82.9712 72.7057 81.1471 74.4672L73.2232 82.1192L7.84074 14.4137L15.7647 6.76165Z" fill="#00A6CA"/>
<path d="M29.6696 20.76L29.9835 21.085L24.6776 26.2088L23.8237 25.3245L27.1341 22.1276L23.7022 22.4912L23.5854 22.3703L24.0613 18.9456L20.7508 22.1425L19.8969 21.2582L25.2027 16.1344L25.5166 16.4594L24.8607 21.2557L29.6696 20.76ZM31.2391 29.3279C30.9216 29.6344 30.5885 29.8491 30.2395 29.9718C29.8957 30.0896 29.5555 30.1357 29.2191 30.11C28.8877 30.0795 28.5698 29.9872 28.2654 29.8333C27.9708 29.6795 27.7068 29.4817 27.4732 29.2398C27.2396 28.998 27.0487 28.7247 26.9005 28.4199C26.7621 28.1153 26.6835 27.7969 26.6645 27.4646C26.6554 27.1326 26.7158 26.7968 26.8456 26.4572C26.9804 26.1128 27.2065 25.7873 27.524 25.4808C27.8364 25.1791 28.1596 24.9692 28.4935 24.8512C28.8374 24.7334 29.1726 24.6872 29.4991 24.7127C29.8256 24.7382 30.1361 24.8279 30.4307 24.9816C30.7303 25.1305 30.9944 25.3234 31.2231 25.5602C31.4664 25.8121 31.6646 26.093 31.8177 26.4028C31.9708 26.7126 32.0569 27.0337 32.0759 27.3659C32.0999 27.6933 32.0445 28.0242 31.9099 28.3587C31.7801 28.6983 31.5565 29.0213 31.2391 29.3279ZM28.3122 26.297C28.1157 26.4868 27.9711 26.6849 27.8783 26.8914C27.7954 27.098 27.7547 27.3028 27.7561 27.506C27.7626 27.7042 27.8039 27.8932 27.88 28.0729C27.966 28.2527 28.0771 28.4132 28.2134 28.5543C28.3448 28.6903 28.4989 28.7995 28.6758 28.8819C28.8527 28.9642 29.0377 29.0096 29.2307 29.0179C29.4288 29.0213 29.6301 28.9827 29.8347 28.9021C30.044 28.8265 30.247 28.6938 30.4435 28.504C30.64 28.3143 30.7797 28.1161 30.8626 27.9095C30.9454 27.7028 30.9837 27.5004 30.9772 27.3021C30.9708 27.1039 30.9245 26.9148 30.8385 26.735C30.7525 26.5551 30.6388 26.3971 30.4975 26.2609C30.3611 26.1297 30.2044 26.0229 30.0275 25.9406C29.8605 25.8584 29.6805 25.8132 29.4875 25.8048C29.2994 25.7916 29.1032 25.8254 28.8987 25.906C28.6992 25.9818 28.5037 26.1121 28.3122 26.297ZM31.9707 31.6131C31.8798 31.7106 31.8234 31.8186 31.8015 31.9371C31.7847 32.0508 31.7901 32.1673 31.8177 32.2867C31.8502 32.4111 31.9001 32.5333 31.9674 32.6534C32.0397 32.7686 32.1245 32.8766 32.2218 32.9774C32.3191 33.0781 32.424 33.1716 32.5364 33.2578C32.6539 33.3391 32.7717 33.4006 32.8899 33.4423C33.0129 33.489 33.134 33.5035 33.2532 33.4858C33.3823 33.4682 33.5047 33.4084 33.6205 33.3064C33.7867 33.1459 33.8296 32.9584 33.7492 32.7439C33.6687 32.5295 33.5268 32.2868 33.3235 32.0157C33.1686 31.805 33.0139 31.5892 32.8592 31.3686C32.7094 31.1529 32.5918 30.9354 32.5065 30.7159C32.431 30.4966 32.4051 30.2782 32.4287 30.0607C32.4572 29.8481 32.5723 29.6396 32.774 29.4351C32.9706 29.2453 33.1807 29.1251 33.4045 29.0745C33.6332 29.029 33.8635 29.0305 34.0955 29.0792C34.3324 29.1328 34.5635 29.231 34.7889 29.3736C35.0143 29.5163 35.2218 29.6859 35.4116 29.8824C35.616 30.094 35.7855 30.3149 35.9202 30.5452C36.0597 30.7804 36.1498 31.0148 36.1903 31.2484C36.2407 31.4821 36.2368 31.7049 36.1786 31.9169C36.1204 32.1289 35.9982 32.32 35.8119 32.4901L35.1112 31.7646C35.2019 31.677 35.2532 31.5788 35.265 31.47C35.2768 31.3612 35.2614 31.2495 35.2188 31.1348C35.1862 31.0203 35.1287 30.9054 35.0465 30.79C34.9692 30.6797 34.8843 30.5766 34.7918 30.4809C34.6994 30.3851 34.5968 30.3041 34.484 30.2377C34.3762 30.1665 34.2632 30.115 34.1449 30.0832C34.0364 30.0516 33.93 30.0472 33.8256 30.0702C33.7262 30.0883 33.6386 30.1388 33.5628 30.2216C33.4165 30.3727 33.3838 30.5455 33.4646 30.7401C33.5554 30.9349 33.7218 31.1929 33.9638 31.5142C34.1236 31.73 34.2734 31.9456 34.4133 32.1611C34.5532 32.3765 34.651 32.5888 34.7068 32.7978C34.7675 33.0119 34.7737 33.225 34.7254 33.4372C34.6771 33.6494 34.5446 33.8601 34.3279 34.0693C34.1264 34.2639 33.9088 34.3864 33.675 34.4369C33.4413 34.4873 33.206 34.4856 32.9692 34.432C32.7374 34.3734 32.5064 34.2703 32.2761 34.1226C32.0458 33.975 31.8334 33.8003 31.6388 33.5988C31.4441 33.3972 31.2696 33.1812 31.1151 32.9506C30.9654 32.7251 30.8605 32.4904 30.8004 32.2466C30.7451 32.0079 30.7419 31.7675 30.7907 31.5257C30.8445 31.2789 30.9775 31.0385 31.1897 30.8044L31.9707 31.6131ZM38.9838 33.7479L40.2027 35.0101L39.6132 35.5794L38.3943 34.3172L36.7844 35.8719C36.472 36.1736 36.3087 36.4481 36.2944 36.6956C36.2853 36.9381 36.373 37.1601 36.5578 37.3615C36.7475 37.558 37.0094 37.7385 37.3434 37.9028L36.8039 38.5845C36.5978 38.4719 36.4092 38.3522 36.238 38.2253C36.0618 38.1034 35.9056 37.9718 35.7693 37.8307C35.5796 37.6342 35.4345 37.4286 35.3343 37.2138C35.234 36.9991 35.1883 36.7753 35.1974 36.5427C35.2064 36.31 35.2725 36.0709 35.3956 35.8253C35.5237 35.5848 35.7212 35.3356 35.9883 35.0777L37.6133 33.5085L36.9509 32.7167L37.4876 32.1985L38.2028 32.9392L39.4093 31.9348L40.11 32.6604L38.9838 33.7479ZM39.6081 41.6697L44.8988 36.5605L47.0155 38.7524C47.2977 39.0447 47.5003 39.3553 47.6234 39.6844C47.7465 40.0136 47.8002 40.3414 47.7846 40.6681C47.774 40.9899 47.6943 41.3006 47.5454 41.6002C47.4014 41.9049 47.2034 42.1788 46.9514 42.4221C46.7045 42.6605 46.4289 42.844 46.1244 42.9724C45.82 43.1009 45.5043 43.1672 45.1773 43.1714C44.8553 43.1707 44.532 43.1031 44.2074 42.9687C43.8927 42.8344 43.5942 42.6211 43.312 42.3289L42.0493 41.0213L40.462 42.5541L39.6081 41.6697ZM44.0829 41.5844C44.2289 41.7355 44.388 41.8448 44.5602 41.9122C44.7373 41.9847 44.9175 42.02 45.1008 42.0183C45.2891 42.0117 45.4732 41.9703 45.6528 41.8942C45.8375 41.8132 46.0055 41.6997 46.1566 41.5537C46.3078 41.4077 46.4246 41.2463 46.5069 41.0694C46.5992 40.8927 46.6494 40.7127 46.6575 40.5296C46.6657 40.3464 46.6366 40.1651 46.5704 39.9856C46.5042 39.8061 46.3981 39.6408 46.2521 39.4896L44.9748 38.1669L42.8056 40.2617L44.0829 41.5844ZM49.653 48.3961C49.3356 48.7026 49.0024 48.9173 48.6535 49.04C48.3096 49.1578 47.9695 49.2039 47.6331 49.1782C47.3017 49.1477 46.9838 49.0554 46.6793 48.9015C46.3848 48.7477 46.1207 48.5499 45.8872 48.3081C45.6536 48.0662 45.4627 47.7929 45.3144 47.4881C45.1761 47.1835 45.0974 46.8651 45.0785 46.5328C45.0694 46.2008 45.1298 45.865 45.2595 45.5254C45.3943 45.181 45.6205 44.8555 45.9379 44.549C46.2503 44.2473 46.5735 44.0374 46.9075 43.9194C47.2513 43.8016 47.5865 43.7554 47.913 43.7809C48.2396 43.8064 48.5501 43.8961 48.8446 44.0498C49.1442 44.1987 49.4084 44.3916 49.6371 44.6284C49.8804 44.8803 50.0786 45.1612 50.2317 45.471C50.3848 45.7808 50.4708 46.1019 50.4898 46.4341C50.5138 46.7615 50.4585 47.0924 50.3239 47.4269C50.1941 47.7665 49.9705 48.0895 49.653 48.3961ZM46.7262 45.3652C46.5297 45.555 46.385 45.7531 46.2923 45.9596C46.2094 46.1662 46.1687 46.3711 46.1701 46.5742C46.1765 46.7725 46.2178 46.9614 46.2939 47.1411C46.38 47.3209 46.4911 47.4814 46.6273 47.6225C46.7587 47.7585 46.9129 47.8677 47.0898 47.9501C47.2667 48.0324 47.4516 48.0778 47.6447 48.0861C47.8428 48.0895 48.0441 48.051 48.2486 47.9703C48.458 47.8947 48.6609 47.762 48.8575 47.5722C49.054 47.3825 49.1937 47.1843 49.2765 46.9777C49.3594 46.771 49.3976 46.5686 49.3912 46.3703C49.3847 46.1721 49.3385 45.983 49.2524 45.8032C49.1664 45.6233 49.0528 45.4653 48.9115 45.3291C48.7751 45.1979 48.6184 45.0911 48.4415 45.0088C48.2745 44.9266 48.0945 44.8814 47.9014 44.873C47.7134 44.8598 47.5171 44.8936 47.3126 44.9742C47.1131 45.05 46.9177 45.1803 46.7262 45.3652ZM52.5836 49.0106C52.9617 48.9182 53.3057 48.9316 53.6157 49.051C53.9258 49.1703 54.2073 49.361 54.4603 49.623C54.7182 49.8901 54.8965 50.1755 54.9952 50.4794C55.094 50.7834 55.1233 51.0861 55.0834 51.3875C55.0483 51.6941 54.9515 51.9921 54.7929 52.2816C54.6342 52.5711 54.4315 52.8351 54.1846 53.0735C53.8923 53.3557 53.5766 53.5632 53.2374 53.696C52.9082 53.829 52.5776 53.895 52.2457 53.8942C51.9188 53.8885 51.6055 53.8162 51.3058 53.6772C51.006 53.5382 50.7444 53.3429 50.5209 53.0913C50.385 52.9304 50.2643 52.75 50.1588 52.55C50.0533 52.35 49.9729 52.1306 49.9176 51.8918L47.8165 53.9209L47.0209 53.0971L51.3668 48.9002C51.4727 48.798 51.5634 48.7105 51.6389 48.6375C51.7196 48.5596 51.7729 48.4838 51.799 48.4099C51.8349 48.3362 51.8387 48.2595 51.8104 48.1798C51.7869 48.105 51.7241 48.0148 51.6219 47.909L52.1815 47.354C52.3577 47.476 52.5066 47.5999 52.6283 47.7259C52.7548 47.8569 52.8416 47.9922 52.8887 48.1317C52.9358 48.2712 52.9358 48.4124 52.8887 48.5553C52.8465 48.7031 52.7448 48.8549 52.5836 49.0106ZM50.6286 51.176C50.6688 51.4294 50.7415 51.661 50.8469 51.8709C50.9522 52.0808 51.0804 52.254 51.2316 52.3903C51.368 52.5215 51.5223 52.6208 51.6946 52.6882C51.8668 52.7556 52.0471 52.786 52.2354 52.7794C52.4238 52.7728 52.6128 52.7265 52.8026 52.6407C53.0022 52.555 53.1953 52.4221 53.3817 52.2421C53.5329 52.0961 53.657 51.9373 53.7541 51.7656C53.8512 51.5939 53.9114 51.4141 53.9345 51.2263C53.9624 51.0435 53.9482 50.8624 53.8919 50.6831C53.8356 50.5038 53.7272 50.331 53.5666 50.1647C53.4303 50.0236 53.2811 49.9195 53.1188 49.8522C52.9565 49.785 52.7886 49.7523 52.6152 49.7543C52.4466 49.7612 52.28 49.8004 52.1153 49.8719C51.9556 49.9384 51.8077 50.0374 51.6717 50.1688L50.6286 51.176ZM60.1482 55.6492L57.5482 58.16C57.4374 58.267 57.3491 58.3571 57.2834 58.4303C57.2226 58.5085 57.1842 58.5796 57.1682 58.6438C57.1522 58.7079 57.161 58.7724 57.1946 58.8374C57.238 58.9026 57.3061 58.9731 57.3989 59.0491L56.8696 59.5748C56.7375 59.4784 56.6008 59.367 56.4593 59.2407C56.3177 59.1243 56.206 58.9936 56.1243 58.8485C56.0475 58.7084 56.0205 58.5544 56.0432 58.3863C56.0709 58.2233 56.1829 58.047 56.3794 57.8572C56.0109 57.9697 55.6668 57.9562 55.3473 57.8169C55.0376 57.6777 54.7587 57.4797 54.5105 57.2227C54.2672 56.9707 54.1007 56.7177 54.011 56.4634C53.9313 56.2094 53.9108 55.9614 53.9497 55.7193C53.9937 55.4724 54.087 55.2313 54.2299 54.996C54.3826 54.7609 54.5698 54.5362 54.7915 54.3221L56.9002 52.2858L57.7031 53.1172L55.5944 55.1535C55.2973 55.4307 55.1337 55.7201 55.1036 56.0218C55.0785 56.3285 55.1827 56.6028 55.4162 56.8447C55.6693 57.1067 55.9666 57.2431 56.3082 57.2541C56.6549 57.2601 56.9743 57.122 57.2666 56.8398L59.3527 54.8253L60.1482 55.6492ZM64.0864 55.9459L59.8689 60.0186C59.612 60.2668 59.4621 60.4797 59.4194 60.6573C59.3767 60.8349 59.4526 61.0244 59.6472 61.226C59.7202 61.3016 59.8154 61.385 59.9327 61.4762L59.327 62.1195C59.2145 62.0333 59.1071 61.9473 59.0045 61.8612C58.9069 61.7803 58.8167 61.697 58.734 61.6113C58.3838 61.2386 58.2268 60.8643 58.2631 60.4885C58.3093 60.1128 58.5793 59.6865 59.0731 59.2097L63.2981 55.1296L64.0864 55.9459ZM62.9475 64.6132C62.7682 64.6695 62.587 64.6887 62.404 64.6706C62.2259 64.6576 62.0508 64.6174 61.8785 64.55C61.7063 64.4826 61.5419 64.393 61.3854 64.2813C61.2337 64.1746 61.097 64.0583 60.9753 63.9323C60.7612 63.7106 60.6066 63.4899 60.5113 63.2703C60.4161 63.0507 60.3653 62.8368 60.359 62.6286C60.3528 62.4204 60.3859 62.2278 60.4583 62.0507C60.5407 61.8738 60.6524 61.7173 60.7935 61.581C60.9648 61.4156 61.1527 61.2925 61.3572 61.2119C61.5617 61.1312 61.7754 61.0953 61.9981 61.1042C62.2209 61.113 62.4477 61.1764 62.6785 61.2944C62.9143 61.4075 63.1465 61.5825 63.3752 61.8193C63.5455 61.9956 63.7055 62.1966 63.8551 62.4221C64.0048 62.6477 64.1121 62.8848 64.1771 63.1337L64.6306 62.6957C64.7817 62.5498 64.8613 62.3901 64.8693 62.2169C64.8821 62.0487 64.8455 61.8796 64.7593 61.7097C64.683 61.5399 64.567 61.3744 64.4112 61.2132C64.2654 61.0521 64.107 60.9032 63.936 60.7665C63.7699 60.6348 63.601 60.5204 63.4293 60.4232C63.2675 60.3263 63.1325 60.2571 63.0242 60.2155L63.4973 59.5104C63.773 59.6044 64.043 59.7478 64.3071 59.9407C64.5761 60.1386 64.8274 60.3585 65.061 60.6003C65.2751 60.822 65.4593 61.0531 65.6136 61.2936C65.768 61.5341 65.8677 61.7786 65.9129 62.0271C65.968 62.2757 65.9562 62.5257 65.8775 62.777C65.7988 63.0282 65.6335 63.2755 65.3816 63.5188L63.9455 64.9056C63.8599 64.9883 63.7843 65.0613 63.7188 65.1246C63.6581 65.1929 63.6149 65.259 63.589 65.3229C63.573 65.387 63.5793 65.454 63.6078 65.5239C63.6363 65.5937 63.7042 65.6742 63.8116 65.7652L63.3349 66.2548C63.1636 66.1378 63.0146 66.0188 62.8879 65.8977C62.761 65.7865 62.6715 65.6636 62.6194 65.5289C62.5721 65.3993 62.5696 65.2605 62.6118 65.1127C62.6591 64.9599 62.7709 64.7934 62.9475 64.6132ZM63.648 63.6446C63.6159 63.5004 63.5324 63.3131 63.3977 63.0829C63.2631 62.8527 63.1081 62.6469 62.9329 62.4655C62.7432 62.269 62.5273 62.1513 62.2852 62.1124C62.0431 62.0734 61.8239 62.1489 61.6273 62.3387C61.4661 62.4944 61.3937 62.6665 61.4103 62.855C61.4268 63.0436 61.547 63.2537 61.7708 63.4855C61.873 63.5913 61.9927 63.6851 62.13 63.7667C62.2722 63.8534 62.4222 63.913 62.5802 63.9455C62.7432 63.9731 62.9117 63.9661 63.0858 63.9246C63.2698 63.8832 63.4572 63.7899 63.648 63.6446ZM68.1702 65.0301C68.305 64.968 68.4467 64.9383 68.5953 64.9409C68.7439 64.9435 68.8896 64.9683 69.0324 65.0154C69.1753 65.0625 69.3128 65.1293 69.4451 65.2158C69.5822 65.3074 69.7042 65.4086 69.8113 65.5194C69.9623 65.6657 70.0857 65.8338 70.1815 66.0237C70.2772 66.2137 70.3382 66.4079 70.3645 66.6065L69.457 67.0886C69.389 66.7258 69.2285 66.4133 68.9754 66.1513C68.8587 66.0304 68.7267 65.929 68.5795 65.8472C68.4372 65.7704 68.2894 65.7232 68.1361 65.7057C67.9829 65.6881 67.8265 65.7077 67.667 65.7644C67.5125 65.8162 67.3622 65.9126 67.2161 66.0537L65.1149 68.0828L64.3266 67.2665L66.9644 64.7192C67.045 64.6414 67.1131 64.5707 67.1687 64.5073C67.2243 64.4439 67.2601 64.3801 67.2761 64.316C67.297 64.2569 67.2882 64.1923 67.2498 64.1223C67.2164 64.0474 67.151 63.9645 67.0535 63.8737L67.6055 63.326C67.7671 63.4328 67.9112 63.5518 68.0377 63.6828C68.1691 63.8188 68.2657 63.9592 68.3276 64.104C68.3943 64.2537 68.4164 64.4077 68.3938 64.5658C68.3811 64.7241 68.3066 64.8789 68.1702 65.0301Z" fill="white"/>
</svg>
